<?xml version="1.0" encoding="UTF-8" standalone="no"?>
<!-- Created with Inkscape (http://www.inkscape.org/) -->

<svg
   version="1.1"
   id="kgpf-logo"
   width="104.80078"
   height="114.77343"
   viewBox="0 0 104.80078 114.77343"
   xmlns="http://www.w3.org/2000/svg"
   xmlns:svg="http://www.w3.org/2000/svg">
  <defs
     id="defs" />
  <g
     id="g16"
     style="display:inline"
     transform="translate(-496.76952,-72.212891)">
    <path
       id="primary-g-bg"
       style="fill:var(--background,none);fill-opacity:1"
       d="m 554.68164,74.599609 c 10.96652,3.781245 18.27825,10.309746 25.21289,19.445313 l -5.50195,-18.164063 c -4.42033,1.415527 -13.03439,-0.465781 -19.71094,-1.28125 z m -36.70312,9.369141 c -12.32361,11.563134 -19.8086,25.16912 -19.8086,48.91797 3.64073,43.12781 25.96477,48.67928 36.62305,51.53516 -15.90669,-7.80091 -28.67516,-23.58178 -29.21094,-48.55469 -0.60522,-28.20978 5.16121,-41.399191 12.39649,-51.89844 z M 570.25,133.75 c 1.24564,0.98191 3.625,2.83377 3.625,5 v 27.9375 c 0,3.27326 -4.22152,10.70599 -13.25,16.1875 10.16664,-2.89583 14.39586,-8.29167 24.6875,-10.375 -4.31834,-2.69354 -3.875,-9.77736 -3.875,-18.875 0,-12.97264 2.68392,-17.48262 5.76953,-19.875 z" />
    <path
       id="primary-g"
       style="fill:var(--fill,#39486f);fill-opacity:1"
       d="m 542.98242,72.212891 c -12.79166,0 -46.21289,12.43554 -46.21289,60.015629 0,29.80857 15.49613,54.75781 50.59766,54.75781 18.1491,0 26.63448,-12.21041 42.93359,-13.85547 -2.47322,-1.95419 -3.09375,-4.61405 -3.09375,-8.41992 v -21.03516 c 0,-7.24323 4.62373,-11.44726 14.36328,-11.44726 h -47.90625 c 8.61223,0 18.82813,1.36749 18.82813,8 v 24.43945 c 0,9.95582 -13.82397,20.61523 -25.125,20.61523 -28.53253,0 -35.18946,-32.05975 -35.18946,-55.61718 0,-42.312533 10.2068,-55.332036 30.80469,-55.332036 20.83216,0 35.46224,16.502278 43.8711,35.222656 -4.03377,-11.014575 -5.96485,-25.540324 -5.96485,-36.636718 -14.91304,4.964829 -18.9541,-0.707031 -37.90625,-0.707031 z m 11.69922,2.386718 c 6.67656,0.815469 15.29061,2.696778 19.71094,1.28125 l 5.50195,18.164063 C 572.95988,84.909346 565.64817,78.380857 554.68164,74.599609 Z m -36.70312,9.369141 c -7.23528,10.499259 -13.00171,23.68863 -12.39649,51.89844 0.53578,24.97294 13.30424,40.75378 29.21094,48.55469 -10.65829,-2.85588 -32.98232,-8.40731 -36.62305,-51.53516 0,-23.74887 7.48498,-37.354824 19.8086,-48.91797 z M 570.25,133.75 h 16.95703 c -3.08561,2.39238 -5.76953,6.90235 -5.76953,19.875 0,9.09765 -0.44334,16.18146 3.875,18.875 -10.29165,2.08333 -14.52085,7.47917 -24.6875,10.375 9.02849,-5.48152 13.25,-12.91424 13.25,-16.1875 V 138.75 c 0,-2.16623 -2.37936,-4.01809 -3.625,-5 z" />
  </g>
</svg>
