<?xml version="1.0" encoding="UTF-8" standalone="no"?>
<!-- Created with Inkscape (http://www.inkscape.org/) -->

<svg
   version="1.1"
   id="kgpf-logo"
   width="96.220703"
   height="109.96679"
   viewBox="0 0 96.220704 109.96679"
   xmlns="http://www.w3.org/2000/svg"
   xmlns:svg="http://www.w3.org/2000/svg">
  <defs
     id="defs" />
  <g
     id="g17"
     style="display:inline"
     transform="translate(0,-77.019531)">
    <path
       id="primary-k-bg"
       style="fill:var(--background,none);fill-opacity:1"
       d="m 57.412109,78.441406 c 2.869781,1.674228 4.681696,4.587594 4.134766,9.527344 l 8.693359,-9.527344 z M 9.4511719,78.591797 c 1.8223951,1.343634 3.8007811,4.030257 3.8007811,8.339844 v 92.820309 c -0.02011,1.98026 -1.869201,4.64277 -3.798828,5.69727 h 15.367187 c -1.864083,-1.96381 -2.998046,-4.83115 -2.998046,-9.39063 V 90.570312 c 0,-4.424628 1.728157,-9.591582 4.679687,-11.978515 z m 24.9707031,43.093753 -5.144531,5.08007 25.71875,39.75782 c 2.981179,5.16353 2.412724,14.0969 -3.160156,18.92578 h 25.83789 C 71.516184,177.61739 64.158203,166.61523 64.158203,166.61523 Z" />
    <path
       id="primary-k"
       class="logo-primary"
       style="fill:var(--fill,#39486f);fill-opacity:1"
       d="m 0,77.019531 c 0,0 12.091254,0.367425 12.044922,10.574219 v 90.36719 C 12.044922,186.98586 0,186.98633 0,186.98633 h 39.59375 c 0,0 -12.097656,-4.7e-4 -12.097656,-9.02539 v -51.32617 l 25.164062,38.79882 c 5.339341,8.20751 1.487561,21.55274 -9.162109,21.55274 h 52.722656 c -8.865916,-0.29846 -11.735774,-2.95325 -15.798828,-9.02539 L 38.746094,115.67969 65.005859,90.111328 C 74.039602,81.314994 78.449852,77.019531 90.117188,77.019531 H 46.511719 c 16.472533,0 15.993474,12.83383 9.261719,19.388672 L 27.496094,123.94141 V 93.082031 c 0,-16.061966 12.078125,-16.0625 12.078125,-16.0625 z m 57.412109,1.421875 h 12.828125 l -8.693359,9.527344 c 0.546931,-4.939755 -1.264983,-7.853115 -4.134766,-9.527344 z M 9.4511719,78.591797 H 26.501953 c -2.951533,2.386936 -4.679687,7.553882 -4.679687,11.978515 v 85.488278 c 0,4.55948 1.133961,7.42682 2.998046,9.39063 H 9.453125 c 1.929629,-1.0545 3.778718,-3.71701 3.798828,-5.69727 V 86.931641 c 0,-4.309591 -1.978384,-6.996209 -3.8007811,-8.339844 z m 24.9707031,43.093753 29.736328,44.92968 c 0,0 7.357975,11.00215 13.515625,18.83399 h -25.83789 c 5.572886,-4.82888 6.141338,-13.76224 3.160156,-18.92578 l -25.71875,-39.75782 z" />
  </g>
</svg>
