<?xml version="1.0" encoding="UTF-8" standalone="no"?>
<!-- Created with Inkscape (http://www.inkscape.org/) -->

<svg
   version="1.1"
   id="kgpf-logo"
   width="967.34375"
   height="237.62811"
   viewBox="0 0 967.34375 237.62812"
   xmlns="http://www.w3.org/2000/svg"
   xmlns:svg="http://www.w3.org/2000/svg">
  <defs
     id="defs" />
  <path
     id="tertiary"
     style="fill:var(--tertiary,#39486f)"
     d="m 395.11133,211.69726 c -20.97809,0 -23.27497,25.76172 -0.29688,25.76172 7.37458,0 10.80177,-3.3263 13.09961,-7.46875 h -0.52539 c -1.12643,2.04079 -4.44712,7.00826 -12.22656,6.58203 -14.06594,0.0649 -13.39208,-24.57461 0,-24.47461 5.57712,0.0416 9.68514,3.36139 11.71094,8.44336 h 0.51562 v -8.40234 h -0.51562 c -1.50219,2.09166 -2.42542,1.82591 -3.86133,1.1582 -2.42409,-1.12723 -5.11193,-1.55641 -7.90039,-1.59961 z m 262.5957,0 -12.83984,21.64453 c -1.50104,2.53034 -2.42576,3.29493 -4.95508,3.29493 v 0.37695 h 11.58008 v -0.37695 c -5.76348,0 -7.6426,8.1e-4 -5.6875,-3.29493 l 3.94336,-6.64843 h 10.93945 l 3.70898,6.64843 c 1.0894,1.95216 1.83894,3.29493 -2.43164,3.29493 h -3.11718 v 0.37695 h 17.02148 v -0.37695 c -3.40223,0 -3.69912,-0.53419 -4.61523,-2.17578 l -12.70313,-22.76368 z m 124.83985,0 c -20.97809,0 -23.27693,25.76172 -0.29883,25.76172 7.37457,0 10.80177,-3.3263 13.09961,-7.46875 h -0.52539 c -1.12643,2.04079 -4.44712,7.00826 -12.22657,6.58203 -14.06593,0.0649 -13.39207,-24.57461 0,-24.47461 5.57713,0.0416 9.6871,3.36139 11.71289,8.44336 h 0.51368 v -8.40234 h -0.51368 c -1.50218,2.09166 -2.42737,1.82591 -3.86328,1.1582 -2.42409,-1.12723 -5.10998,-1.55641 -7.89843,-1.59961 z m -678.63477,0.44141 v 0.33789 c 4.85428,0 4.9375,0.40253 4.9375,3.44336 v 17.88477 c 0,2.4704 -0.64698,2.82226 -3.05078,2.82226 l -1.88672,0.01 v 0.37695 h 16.03906 v -0.37695 c -5.06997,0 -5.70898,-0.0771 -5.70898,-2.56836 v -8.27344 h 6.44922 c 14.97493,0 16.40175,-13.65625 -0.0977,-13.65625 z m 56.64258,0 v 0.35938 c 3.93957,0 4.39258,0.61792 4.39258,2.45703 l 0.0332,15.86328 c 0,8.51071 24.60905,9.92029 24.5625,-0.82813 v -14.36914 c 0,-3.12672 2.01481,-3.12669 3.95703,-3.12304 v -0.35938 h -10.8457 v 0.35938 c 3.33644,0 6.15625,-0.003 6.15625,2.84179 v 14.08594 c 0,8.55191 -18.42188,8.79394 -18.42188,1.48242 v -16.22461 c 0,-2.18871 2.62547,-2.18554 5.6836,-2.18554 v -0.35938 z m 61.04883,0 v 0.35547 c 3.30397,0 4.90234,-2e-5 4.90234,2.14648 v 19.80469 c 0,2.19051 -1.71414,2.19141 -4.90234,2.19141 v 0.37695 h 19.36523 c 9.72426,0 15.25521,-10.60001 0.17773,-13.04688 11.41863,-1.77587 8.95134,-11.82812 -2.0039,-11.82812 z m 56.97656,0 v 0.35547 c 3.45498,0 4.83984,-3.6e-4 4.83984,2.57617 v 19.35938 c 0,2.20729 -1.43491,2.20703 -4.83984,2.20703 v 0.37695 h 26.55859 l 1.90039,-8.94336 c -1.91585,3.02507 -6.23488,8.56641 -9.73242,8.56641 h -5.00976 c -1.94341,0 -3.42969,-4.3e-4 -3.42969,-2.30469 V 214.9414 c 0,-2.44725 1.25104,-2.44726 4.97656,-2.44726 v -0.35547 z m 56.56054,0 v 0.35547 c 2.42469,0 3.86133,9e-5 4.49415,0.81055 0.26126,0.33459 0.38671,0.80672 0.38671,1.4746 v 19.68165 c 0,2.17497 -1.45515,2.17578 -4.88086,2.17578 v 0.37695 h 15.22071 v -0.37695 c -3.55498,0 -4.97656,-8.1e-4 -4.97656,-2.17578 v -19.68165 c 0,-2.28566 1.42158,-2.28515 4.97656,-2.28515 v -0.35547 z m 142.48829,0 v 0.35547 c 3.25664,0 5.23047,-5.1e-4 5.23047,2.28515 v 19.68165 c 0,2.17497 -2.1197,2.17578 -5.23047,2.17578 v 0.37695 h 17.21484 v -0.37695 c -3.86503,0 -6.16211,-8.1e-4 -6.16211,-2.17578 v -9.5 h 5.16211 c 3.40625,0 5.16406,2.73057 5.16406,5.29296 h 0.56446 v -11.30273 h -0.56446 c 0,2.06981 -1.75781,5.60938 -5.16406,5.60938 h -5.16211 v -9.78126 c 0,-2.28566 1.53498,-2.28515 3.59961,-2.28515 h 3.75 c 5.43902,0 7.74944,3.0167 10.83594,7.67187 l 0.63281,-0.14843 -1.82227,-7.87891 z m 57.0332,0 v 0.35547 c 2.42469,0 3.86132,9e-5 4.49414,0.81055 0.26126,0.33459 0.38477,0.80672 0.38477,1.4746 v 19.68165 c 0,2.17497 -1.4532,2.17578 -4.87891,2.17578 v 0.37695 h 15.2207 v -0.37695 c -3.55497,0 -4.97656,-8.1e-4 -4.97656,-2.17578 v -19.68165 c 0,-2.28566 1.42159,-2.28515 4.97656,-2.28515 v -0.35547 z m 42.37305,0 v 0.35547 c 1.52725,0 3.0486,-4.5e-4 5.57422,2.35351 v 18.49414 c 0,3.29574 -2.11227,3.29493 -5.57422,3.29493 v 0.37695 h 12.50195 v -0.37695 c -4.48889,0 -6.13477,8.1e-4 -6.13477,-3.29493 v -17.75585 l 23.4668,21.87304 h 0.61328 v -22.03125 c 0,-2.93398 3.03814,-2.93359 5.2793,-2.93359 v -0.35547 h -12.60156 v 0.35547 c 3.09867,0 6.53125,-3.9e-4 6.53125,2.93359 v 15.57422 l -20.23829,-18.86328 z m 125.98632,0 v 0.35547 c 1.52726,0 3.04861,-4.5e-4 5.57422,2.35351 v 18.49414 c 0,3.29574 -2.11226,3.29493 -5.57422,3.29493 v 0.37695 h 12.50196 v -0.37695 c -4.48889,0 -6.13477,8.1e-4 -6.13477,-3.29493 v -17.75585 l 23.4668,21.87304 h 0.61523 v -22.03125 c 0,-2.93398 3.03619,-2.93359 5.27735,-2.93359 v -0.35547 h -12.60157 v 0.35547 c 3.09868,0 6.53125,-3.9e-4 6.53125,2.93359 v 15.57422 l -20.23828,-18.86328 z m 119.51368,0 v 0.35547 c 3.4579,0 5.24414,-5.1e-4 5.24414,2.28515 v 19.68165 c 0,2.17497 -1.13093,2.17578 -5.24414,2.17578 v 0.37695 h 28.91015 l 1.86914,-7.20703 -0.66601,-0.17188 c -1.93296,2.34099 -5.78024,7.00196 -9.22461,7.00196 h -5.48047 c -2.45967,0 -4.36328,-8.1e-4 -4.36328,-2.17578 v -9.5 h 4.36328 c 3.95597,-0.0149 5.48047,2.45079 5.48047,5.28125 h 0.59961 v -11.20704 h -0.59961 c 0,1.57278 -1.13518,5.5254 -5.48047,5.5254 h -4.36328 v -9.78126 c 0,-2.28566 1.01187,-2.28515 3.09375,-2.28515 h 4.77344 c 5.48769,0 8.36931,5.39488 9.64453,7.08008 l 0.60742,-0.17188 -1.61133,-7.26367 z m -588.55274,0.35547 h 2.54688 c 7.37999,0 9.87569,11.61328 -1.05664,11.61328 h -3.50196 v -10.14063 c 0,-1.47159 1.36925,-1.47265 2.01172,-1.47265 z m -117.07812,0.004 h 2.33593 c 9.39228,0 9.7045,12.88281 -0.0683,12.88281 h -4.92969 l 0.0234,-10.50781 c 10e-6,-1.31082 -0.0228,-2.37501 2.63868,-2.375 z m 538.48047,4.69531 5.05859,9.0625 h -10.43555 z m -423.41407,7.3671 5.45508,0.0156 c 9.33108,0 8.34755,12.06055 0.88281,12.06055 h -3.82031 c -0.42116,0 -2.51641,-3.8e-4 -2.5664,-1.8418 z" />
  <path
     id="secondary-background"
     style="fill:var(--secondary-bg,none)"
     d="m 447.71289,7.3847627 c 14.52556,16.3852063 15.17636,43.3476763 3.7207,63.1894533 9.6521,-9.954158 13.22657,-20.459966 12.72657,-32.880859 -0.62423,-15.506974 -6.64708,-24.949225 -16.44727,-30.3085943 z m -34.29297,2.4980468 c -21.36044,20.4992175 -13.80469,50.2839275 0.15039,67.7070315 10.34929,12.921213 21.11942,25.120759 33.56641,44.009769 12.44698,18.88902 24.75474,54.10495 56.10351,60.95117 C 462.7646,155.0632 470.99289,120.31126 446.80273,96.857419 421.36177,72.190826 392.08387,47.117611 413.41992,9.8828095 Z m 72.03125,73.9824215 c 6.36704,3.948188 14.01287,15.290434 13.5,29.244139 2.91471,-11.0041 8.51117,-23.114945 16.17578,-29.244139 z m -85.75781,8.75 c -18.98362,9.740209 -29.24629,31.948779 -23.24609,54.341799 6.00019,22.39301 28.02892,37.20525 50.02734,37.0957 -41.71015,-14.15665 -46.44568,-64.37005 -26.78125,-91.437499 z" />
  <path
     id="secondary"
     style="fill:var(--secondary,#a98b7c)"
     d="M 436.86018,3.8877725e-6 C 410.80087,-0.00983611 397.67073,18.584436 397.67073,42.796879 c 0,12.944711 1.46279,20.563203 16.46484,39.851562 -67.05386,18.592449 -47.76724,104.912109 10.25,104.912109 20.12252,0 32.83253,-6.82138 46.92969,-20.23047 9.27349,11.84235 20.69454,20.12224 32.75392,20.23242 10.86125,0.0992 22.25617,-6.56509 32.791,-20.85546 -16.12577,16.18607 -36.24964,23.91933 -53.18359,-15.72461 18.11771,-24.47094 25.94518,-63.127977 55.49414,-67.117192 v -2.960937 h -75.26367 v 2.960937 c 20.39064,0 23.86254,3.845357 28.89453,13.304688 7.1044,13.355144 2.00629,32.296714 -10.84961,49.298834 C 476.30495,127.98308 463.96322,100.51692 443.97346,79.169926 484.90833,62.267565 476.30356,0.01489736 436.86018,3.8877725e-6 Z M 432.7801,3.5410195 c 25.16577,-0.079996 33.91566,54.6301775 8.82618,72.8867185 -7.86809,-11.013032 -17.1069,-15.8294 -24.67774,-26.416015 -12.8022,-17.901841 -8.29514,-41.727397 12.02149,-46.0507816 1.31499,-0.2798316 2.59241,-0.4159877 3.83007,-0.4199219 z m 14.9336,3.84375 c 9.80021,5.3593795 15.82303,14.8015885 16.44726,30.3085935 0.5,12.420918 -3.07444,22.926682 -12.72656,32.88086 11.45568,-19.841817 10.80488,-46.804215 -3.7207,-63.1894535 z m -34.29297,2.4980469 c -21.33609,37.2348756 7.94179,62.3079666 33.38281,86.9746096 24.1902,23.453884 15.96179,58.205724 56.4375,85.693364 -31.34885,-6.84624 -43.65651,-42.06212 -56.10351,-60.95118 C 434.69052,102.71056 423.92043,90.511087 413.57112,77.589848 399.616,60.16671 392.06025,30.382074 413.42073,9.8828164 Z m 72.03125,73.9824216 h 29.67578 c -7.66463,6.129206 -13.26107,18.240022 -16.17578,29.244142 0.51287,-13.953739 -7.13296,-25.295948 -13.5,-29.244142 z m -69.35742,1.302735 c 26.41993,33.968487 36.64401,51.148287 53.125,79.318357 -55.63743,60.71258 -104.89249,-51.32721 -53.125,-79.318357 z m -16.40039,7.447265 c -19.66447,27.067502 -14.92898,77.280812 26.78125,91.437502 -21.99846,0.10955 -44.02714,-14.70265 -50.02735,-37.0957 -6.0002,-22.39306 4.26244,-44.60157 23.2461,-54.341802 z" />
  <path
     id="primary-background"
     style="fill:var(--secondary-bg,none)"
     d="m 554.68164,75.175778 c 10.96652,3.781245 18.27825,10.309746 25.21289,19.445313 l -5.50195,-18.164063 c -4.42033,1.415527 -13.03439,-0.465781 -19.71094,-1.28125 z M 57.412109,79.017575 c 2.869781,1.674228 4.681696,4.587594 4.134766,9.527344 l 8.693359,-9.527344 z M 9.4511719,79.167966 c 1.8223951,1.343634 3.8007811,4.030257 3.8007811,8.339844 v 92.82031 c -0.02011,1.98026 -1.869201,4.64277 -3.798828,5.69727 h 15.367187 c -1.864083,-1.96381 -2.998046,-4.83115 -2.998046,-9.39063 V 91.146481 c 0,-4.424628 1.728157,-9.591582 4.679687,-11.978515 z M 517.97852,84.544919 c -12.32361,11.563134 -19.8086,25.169121 -19.8086,48.917971 3.64073,43.12781 25.96477,48.67928 36.62305,51.53516 -15.90669,-7.80091 -28.67516,-23.58178 -29.21094,-48.55469 -0.60522,-28.20978 5.16121,-41.399192 12.39649,-51.898441 z M 176.79688,107.5332 c 1.06814,0.97576 2.16601,2.2974 2.16601,9.55469 v 57.3125 c 0,5.10125 -0.68277,9.40298 -3.92383,11.80469 h 12.25196 c -2.93489,-2.31839 -4.05664,-5.85357 -4.05664,-11.80469 v -54.04492 c -10e-6,-10.882 3.06097,-11.56428 5.32226,-12.82227 z m 67.95507,0 c 1.06816,0.97576 2.16797,2.2974 2.16797,9.55469 v 57.3125 c 0,5.10125 -0.68277,9.40298 -3.92383,11.80469 h 12.25 c -2.93487,-2.31839 -4.05664,-5.85357 -4.05664,-11.80469 v -54.04492 c 0,-10.882 3.06293,-11.56428 5.32422,-12.82227 z m 139.44922,0 c 0.97834,0.68566 0.97852,1.90774 0.97852,4.16016 v 68.88476 c 0,3.33369 -0.76557,4.75098 -2.26367,5.67578 h 20.7246 c -5.74085,-0.87107 -12.08398,-2.56906 -12.08398,-8.95898 v -65.20117 c 0,-2.69357 0.50071,-3.5633 1.11524,-4.56055 z m -72.1875,0.0137 c 1.6305,1.16124 3.24024,2.9677 3.24024,6.08594 v 63.65625 c 0,2.04718 -1.02972,7.25975 -5.01172,9.05664 l 14.72461,0.0117 c -3.1324,-0.81454 -4.63477,-3.18476 -4.63477,-6.49609 v -64.32422 c 0,-3.87526 1.25071,-6.73915 3.47656,-7.99024 z m 31.32813,0 c 6.68533,2.27071 11.67727,6.15252 15.83398,12.01368 l -2.55664,-12.01368 z m 486.48242,0.0488 c 1.62948,1.16051 3.23828,2.96574 3.23828,6.08203 v 63.61914 c 0,2.04591 -1.03022,7.25306 -5.00977,9.04883 l 14.7168,0.0117 c -3.13045,-0.81403 -4.63086,-3.1829 -4.63086,-6.49219 v -64.2832 c 0,-3.87285 1.24818,-6.73602 3.47266,-7.98633 z m 31.31055,0 c 6.68117,2.26929 11.66812,6.15032 15.82226,12.00781 l -2.55469,-12.00781 z m -180.73243,0.0684 c 2.06525,1.29873 3.77539,4.89263 3.77539,10.59961 v 38.23047 c 0,6.49325 2.36236,18.6932 9.30469,22.64844 -5.13725,-7.64629 -5.72656,-18.24003 -5.72656,-25.54493 v -37.06836 c 0,-4.43569 2.11098,-7.54364 4.21289,-8.86523 z m -67.00976,0.0391 c 0.64062,0.56898 1.23828,1.43372 1.23828,3.9043 v 68.41211 c -10e-6,2.61952 -1.22449,4.83214 -2.8418,6.13086 h 11.65625 c -1.44348,-1.18875 -2.60547,-3.30531 -2.60547,-6.57422 v -66.04492 c 0,-2.63331 1.09389,-4.78777 2.95508,-5.82813 z m 291.23437,0 c 0.64062,0.56898 1.24024,1.43372 1.24024,3.9043 v 68.41211 c -1e-5,2.61952 -1.22644,4.83214 -2.84375,6.13086 h 11.65625 c -1.44348,-1.18875 -2.60352,-3.30531 -2.60352,-6.57422 v -66.04492 c 0,-2.63331 1.09194,-4.78777 2.95313,-5.82813 z m -141.37109,0.13086 c 1.38149,1.27607 3.14844,3.84955 3.14844,9.83594 v 58.33594 c 0,5.42686 -1.68508,8.74957 -2.83985,10.0039 h 11.26953 c -2.23915,-1.2601 -4.04296,-5.43055 -4.04296,-11.01953 v -55.77734 c 0,-7.05934 2.59375,-10.19333 5.10351,-11.37891 z m -32.97656,1.06446 c 1.49807,1.4106 3.38027,3.99486 4.1914,6.06835 0.77044,-2.29234 2.04574,-4.63116 3.33594,-6.06835 z m 61.39258,0.5957 c 9.06737,7.68564 7.93805,22.19139 4.0371,31.20312 4.80198,-2.26214 8.22912,-7.95863 7.49805,-16.88476 -0.52067,-6.35725 -3.11871,-11.46252 -11.53515,-14.31836 z m -577.08008,1.10156 c 0,0 5.14842,4.04722 4.87109,19.81641 -0.27227,15.48135 -5.71484,19.37304 -5.71484,19.37304 0,0 9.76262,-1.57617 9.98047,-18.8496 0.21002,-16.65157 -9.13672,-20.33985 -9.13672,-20.33985 z m 67.95703,0 c 0,0 5.14842,4.04722 4.87109,19.81641 -0.27227,15.48135 -5.71484,19.37304 -5.71484,19.37304 0,0 9.76262,-1.57617 9.98047,-18.8496 0.21002,-16.65157 -9.13672,-20.33985 -9.13672,-20.33985 z m 366.61328,0.125 c 6.52846,6.51704 5.66427,24.11306 0.72656,30.11719 7.21929,-1.58556 9.37967,-7.84968 8.66602,-15.12695 -0.70348,-7.17365 -3.93583,-12.27453 -9.39258,-14.99024 z m 291.23437,0 c 6.52848,6.51704 5.66426,24.11306 0.72657,30.11719 7.21929,-1.58556 9.3816,-7.84968 8.66797,-15.12695 -0.70348,-7.17365 -3.93777,-12.27453 -9.39454,-14.99024 z m -833.70117,3.48039 c -8.53835,8.18406 -13.618632,18.24523 -13.708982,30.76562 -0.162097,22.46391 9.370342,31.48858 15.199222,35.3711 -14.857314,-14.45768 -14.190455,-50.24508 -1.49024,-66.13672 z m 36.23242,0 c 12.70024,15.89164 13.3671,51.67904 -1.49023,66.13672 5.82886,-3.88252 15.35937,-12.90719 15.19727,-35.3711 -0.0904,-12.52039 -5.16866,-22.58156 -13.70704,-30.76562 z m -108.505855,8.06055 -5.144531,5.08007 25.71875,39.75782 c 2.981179,5.16353 2.412724,14.0969 -3.160156,18.92578 h 25.83789 C 71.516184,178.19356 64.158203,167.1914 64.158203,167.1914 Z M 570.25,134.32617 c 1.24564,0.98191 3.625,2.83377 3.625,5 v 27.9375 c 0,3.27326 -4.22152,10.70599 -13.25,16.1875 10.16664,-2.89583 14.39586,-8.29167 24.6875,-10.375 -4.31834,-2.69354 -3.875,-9.77736 -3.875,-18.875 0,-12.97264 2.68392,-17.48262 5.76953,-19.875 z M 345,141.32226 c -1.13788,1.28614 -2.34416,2.44935 -3.98242,3.35743 1.67161,0.64861 3.06693,1.56567 3.98242,2.74804 z m 517.79102,0.0293 c -1.13717,1.28535 -2.34323,2.44796 -3.98047,3.35547 1.67057,0.64823 3.06555,1.56446 3.98047,2.74609 z m -62.30664,7.54492 c 5.16421,7.75489 7.56758,32.11114 -3.34376,36.70313 10.16351,-0.81413 14.08086,-7.96055 13.22461,-21.30469 -0.5022,-7.82655 -5.18307,-12.60111 -9.88085,-15.39844 z m -159.41211,1.38086 c 4.12513,7.71918 5.99803,15.79828 7.41015,18.24414 0.90167,1.56175 7.36704,20.2168 17.29883,20.2168 -8.20214,-4.27213 -12.36335,-17.13202 -13.08594,-19.18359 -1.0688,-3.03452 -6.19038,-15.3365 -11.62304,-19.27735 z m 291.23437,0 c 4.12515,7.71918 5.99804,15.79828 7.41016,18.24414 0.90167,1.56175 7.36703,20.2168 17.29882,20.2168 -8.20214,-4.27213 -12.36139,-17.13202 -13.08398,-19.18359 -1.0688,-3.03452 -6.19232,-15.3365 -11.625,-19.27735 z m -567.91211,20.01367 c -10.50927,10.88976 -17.90445,15.11677 -23.90234,16.05469 h 16.98437 z m 517.7793,0.01 c -10.50275,10.88299 -17.89451,15.10759 -23.88867,16.04492 h 16.97265 z m -445.04688,1.09961 c -8.3269,8.02965 -17.15092,13.69507 -26.91992,14.85351 h 19.82031 z" />
  <path
     id="primary"
     style="fill:var(--primary,#39486f)"
     d="m 542.98242,72.78906 c -12.79166,0 -46.21289,12.43554 -46.21289,60.01563 0,29.80857 15.49613,54.75781 50.59766,54.75781 18.1491,0 26.63448,-12.21041 42.93359,-13.85547 -2.47322,-1.95419 -3.09375,-4.61405 -3.09375,-8.41992 v -21.03516 c 0,-7.24323 4.62373,-11.44726 14.36328,-11.44726 h -47.90625 c 8.61223,0 18.82813,1.36749 18.82813,8 v 24.43945 c 0,9.95582 -13.82397,20.61523 -25.125,20.61523 -28.53253,0 -35.18946,-32.05975 -35.18946,-55.61718 0,-42.312534 10.2068,-55.332037 30.80469,-55.332037 20.83216,0 35.46224,16.502278 43.8711,35.222657 -4.03377,-11.014576 -5.96485,-25.540325 -5.96485,-36.636719 -14.91304,4.964829 -18.9541,-0.707031 -37.90625,-0.707031 z m 11.69922,2.386718 c 6.67656,0.815469 15.29061,2.696778 19.71094,1.28125 l 5.50195,18.164063 C 572.95988,85.485515 565.64817,78.957026 554.68164,75.175778 Z M 0,77.5957 c 0,0 12.091254,0.367425 12.044922,10.574219 V 178.53711 C 12.044922,187.56203 0,187.5625 0,187.5625 h 39.59375 c 0,0 -12.097656,-4.7e-4 -12.097656,-9.02539 v -51.32617 l 25.164062,38.79882 c 5.339341,8.20751 1.487561,21.55274 -9.162109,21.55274 h 52.722656 c -8.865916,-0.29846 -11.735774,-2.95325 -15.798828,-9.02539 L 38.746094,116.25586 65.005859,90.687497 C 74.039602,81.891163 78.449852,77.5957 90.117188,77.5957 H 46.511719 c 16.472533,0 15.993474,12.83383 9.261719,19.388672 L 27.496094,124.51758 V 93.6582 c 0,-16.061966 12.078125,-16.0625 12.078125,-16.0625 z m 57.412109,1.421875 h 12.828125 l -8.693359,9.527344 c 0.546931,-4.939755 -1.264983,-7.853115 -4.134766,-9.527344 z M 9.4511719,79.167966 H 26.501953 c -2.951533,2.386936 -4.679687,7.553882 -4.679687,11.978515 v 85.488279 c 0,4.55948 1.133961,7.42682 2.998046,9.39063 H 9.453125 c 1.929629,-1.0545 3.778718,-3.71701 3.798828,-5.69727 V 87.50781 c 0,-4.309591 -1.978384,-6.996209 -3.8007811,-8.339844 z M 517.97852,84.544919 c -7.23528,10.499259 -13.00171,23.688631 -12.39649,51.898441 0.53578,24.97294 13.30424,40.75378 29.21094,48.55469 -10.65829,-2.85588 -32.98232,-8.40731 -36.62305,-51.53516 0,-23.74887 7.48498,-37.354825 19.8086,-48.917971 z m -214.0625,21.597661 c 4.66626,0.96954 9.72851,2.49619 9.72851,7.75781 v 61.57422 c 0,6.7847 -2.64089,10.94682 -9.66601,10.90234 v 1.18555 h 58.26171 l 7.35352,-25.73828 c -13.77562,16.79918 -23.37555,23.08104 -31.58594,23.31054 h -5.16601 c -4.99017,0 -8.31055,1.5e-4 -8.31055,-4.00976 v -35.17383 h 7.1543 c 12.64302,0 15.5035,4.44348 17.88281,18.14258 v -37.92774 c -2.78392,11.53471 -5.23979,18.375 -17.88281,18.375 h -7.1543 v -30.92382 c 0,-4.749 2.56419,-5.6617 9.98633,-5.72461 12.83927,0.0515 21.65493,6.9154 27.84961,20.41211 l -1.19922,-22.16211 z m -179.0918,0.0488 c -14.90431,0 -33.132761,13.34955 -33.128908,40.54102 0.0039,27.19148 18.224598,40.96115 33.128908,40.7793 14.90427,-0.18185 33.13281,-13.16815 33.13281,-40.57032 0,-27.40217 -18.22854,-40.75 -33.13281,-40.75 z m 44.1914,0.002 c 6.17283,0.32954 8.56836,1.8602 8.56836,10.20898 v 60.02149 c 0,5.02855 -2.22785,10.43955 -9.58203,11.13867 h 29.59766 c -8.34194,0 -10.00195,-3.31826 -10.00195,-14.77344 v -21.23047 c 6.25602,2.1773 20.94219,2.83138 25.79296,1.45703 9.36713,-2.65397 14.53126,-7.64433 14.53126,-23.89453 0,-17.9893 -10.50883,-22.92773 -21.99415,-22.92773 z m 67.95508,0 c 6.17283,0.32954 8.57032,1.8602 8.57032,10.20898 v 60.02149 c 0,5.02855 -2.22786,10.43955 -9.58204,11.13867 h 29.59766 c -8.34194,0 -10.00195,-3.31826 -10.00195,-14.77344 v -21.23047 c 6.25602,2.1773 20.94024,2.83138 25.79101,1.45703 9.36712,-2.65397 14.53321,-7.64433 14.53321,-23.89453 0,-17.9893 -10.50883,-22.92773 -21.99414,-22.92773 z m 369.27539,0 c 4.60508,0 7.05274,2.11885 7.05274,6.08789 v 66.3418 c 0,4.85056 -2.47205,8.05048 -8.42188,8.89257 h 29.30664 c -6.22972,0 -9.38671,-3.02132 -9.38671,-7.05273 v -34.85354 h 4.85156 c 8.13079,0 9.96844,2.51766 15.25976,17.7168 1.17788,3.38339 6.64577,20.25237 16.4961,25.93945 2.64235,1.52557 10.49261,1.56699 14.70508,-0.46484 -10.20809,0.0225 -13.73798,-5.77141 -16.57813,-14.65234 -2.66672,-8.33866 -6.06801,-15.62466 -9.56641,-19.96485 -4.27278,-5.30089 -6.41768,-6.59633 -10.4707,-8.37304 18.82335,-0.81534 25.93322,-6.97021 23.80274,-22.82618 -0.79734,-5.93418 -7.58574,-16.79101 -23.90235,-16.79101 z m 65.88477,0 c 2.41488,0 10.68555,0.60791 10.68555,11.9707 v 38.74023 c 0,19.28694 11.52198,32.05635 31.20898,30.66016 16.8537,-1.19526 21.99023,-16.95563 21.99023,-34.45898 l 0.0313,-26.61328 c 0,-7.81738 2.98731,-19.0686 10.97851,-20.29883 l -28.77148,0.0312 c 8.37185,0.84184 15.91797,5.94998 15.91797,22.85937 v 23.95899 c 0,28.01913 -13.42159,31.29986 -20.14844,32.17773 -11.86614,1.54856 -21.41797,-11.74183 -21.41797,-26.44531 v -41.52344 c 0,-8.81257 5.10873,-11.05859 10.11133,-11.05859 z m 84.99414,0 c 5.5688,1.30908 7.79687,4.14243 7.79688,11.91797 v 57.6289 c 0,5.40502 -1.54034,11.63429 -7.5879,11.82227 H 793.75 c 13.9626,0 21.08513,-4.24718 20.72656,-21.19141 -0.31245,-14.76467 -6.68206,-20.8581 -21.85156,-22.61523 9.65869,-0.72812 14.56255,-5.99735 14.65625,-13.9375 v -6.21875 c 0,-7.39159 -6.34003,-17.40625 -24.4375,-17.40625 z m 64.60742,0 c 4.66337,0.96893 9.7207,2.49361 9.7207,7.75195 v 61.53516 c 0,6.78048 -2.63744,10.94093 -9.6582,10.89648 v 1.18555 h 58.22461 l 7.34961,-25.72266 c -13.76706,16.78875 -23.36112,23.06752 -31.56641,23.29688 h -5.16211 c -4.98706,0 -8.30664,-3.9e-4 -8.30664,-4.00782 v -35.15234 h 7.1504 c 12.63517,0 15.49326,4.44222 17.87109,18.13281 v -37.90625 c -2.78219,11.52754 -5.23592,18.36328 -17.87109,18.36328 h -7.1504 v -30.90429 c 0,-4.74606 2.56294,-5.65785 9.98047,-5.72071 12.83129,0.0515 21.64121,6.91012 27.83203,20.39844 l -1.19921,-22.14648 z m 75.75,0 c 4.60508,0 7.05274,2.11885 7.05274,6.08789 v 66.3418 c 0,4.85056 -2.47401,8.05048 -8.42383,8.89257 h 29.30664 c -6.22973,0 -9.38672,-3.02132 -9.38672,-7.05273 v -34.85354 h 4.85156 c 8.13079,0 9.96844,2.51766 15.25977,17.7168 1.17788,3.38339 6.64576,20.25237 16.49609,25.93945 2.64236,1.52557 10.49261,1.56699 14.70508,-0.46484 -10.20809,0.0225 -13.73602,-5.77141 -16.57617,-14.65234 -2.66672,-8.33866 -6.06996,-15.62466 -9.56836,-19.96485 -4.27279,-5.30089 -6.41769,-6.59633 -10.4707,-8.37304 18.82335,-0.81534 25.93517,-6.97021 23.80468,-22.82618 -0.79734,-5.93418 -7.58768,-16.79101 -23.90429,-16.79101 z m -525.72656,0.002 c 10.54305,0.55182 12.16612,0.31151 12.17969,6.33203 v 66.82422 c 0,6.37728 -1.13647,6.90234 -12.17969,6.90234 v 1.30665 h 63.37109 l 8.35938,-25.93165 c -12.27367,15.14839 -23.5782,23.08985 -36.46875,23.08985 -5.58167,0.0312 -10.8711,-3.34815 -10.8711,-7.8457 v -65.96876 c 0,-4.28198 5.4147,-4.59915 11.68164,-4.70898 z M 200.5,107.14648 c 10.55434,0 17.53516,2.98921 17.53516,22.47071 0,13.11197 -3.4102,20.04304 -10.38672,22.66406 -4.50286,1.69169 -13.9314,0.5601 -20.05078,-4.0957 v -33.01172 c 0,-5.33357 4.00412,-7.99603 12.90234,-8.02735 z m 67.95703,0 c 10.55434,0 17.53516,2.98921 17.53516,22.47071 0,13.11197 -3.4102,20.04304 -10.38672,22.66406 -4.50286,1.69169 -13.9314,0.5601 -20.05078,-4.0957 v -33.01172 c 0,-5.33357 4.00412,-7.99603 12.90234,-8.02735 z m 366.98438,0.20703 c 9.02888,0 16.80472,4.75135 16.80468,16.38672 v 1.59961 c -4e-5,12.58692 -2.88891,18.33789 -16.36132,18.33789 h -11.08789 v -28.92578 c 0,-5.01146 2.67537,-7.39844 10.64453,-7.39844 z m 291.23632,0 c 9.02889,0 16.80278,4.75135 16.80274,16.38672 v 1.59961 c -4e-5,12.58692 -2.88891,18.33789 -16.36133,18.33789 h -11.08789 v -28.92578 c 0,-5.01146 2.67733,-7.39844 10.64648,-7.39844 z m -749.88085,0.17969 h 11.75976 c -2.26129,1.25799 -5.32227,1.94026 -5.32226,12.82227 v 54.04492 c 0,5.95113 1.12175,9.4863 4.05664,11.80469 h -12.25196 c 3.24106,-2.40171 3.92383,-6.70343 3.92383,-11.80469 v -57.3125 c 0,-7.2573 -1.09786,-8.57893 -2.16601,-9.55469 z m 67.95507,0 h 11.76172 c -2.26129,1.25799 -5.32422,1.94026 -5.32422,12.82227 v 54.04492 c 0,5.95113 1.12176,9.4863 4.05664,11.80469 h -12.25 c 3.24106,-2.40171 3.92383,-6.70343 3.92383,-11.80469 v -57.3125 c 0,-7.2573 -1.09981,-8.57893 -2.16797,-9.55469 z m 139.44922,0 h 8.47071 c -0.61453,0.99725 -1.11524,1.86698 -1.11524,4.56055 v 65.20117 c 0,6.38993 6.34312,8.0879 12.08398,8.95898 h -20.7246 c 1.49811,-0.92481 2.26367,-2.34209 2.26367,-5.67578 v -68.88476 c 0,-2.25242 -1.8e-4,-3.4745 -0.97852,-4.16016 z m -72.1875,0.0137 h 11.79492 c -2.22586,1.25109 -3.47656,4.11498 -3.47656,7.99024 v 64.32422 c 0,3.31134 1.50237,5.68155 4.63477,6.49609 l -14.72461,-0.0117 c 3.98201,-1.79689 5.01172,-7.00946 5.01172,-9.05664 v -63.65625 c 0,-3.11824 -1.60974,-4.9247 -3.24024,-6.08594 z m 31.32813,0 h 13.27734 l 2.55664,12.01368 c -4.15672,-5.86116 -9.14864,-9.74297 -15.83398,-12.01368 z m 486.48242,0.0488 h 11.78711 c -2.22448,1.25031 -3.47266,4.11348 -3.47266,7.98633 v 64.2832 c 0,3.30929 1.50041,5.67816 4.63086,6.49219 l -14.7168,-0.0117 c 3.97955,-1.79577 5.00977,-7.00292 5.00977,-9.04883 v -63.61914 c 0,-3.1163 -1.6088,-4.92152 -3.23828,-6.08203 z m 31.31055,0 h 13.26757 l 2.55469,12.00781 c -4.15415,-5.8575 -9.14108,-9.73852 -15.82226,-12.00781 z m -180.73243,0.0684 h 11.56641 c -2.10191,1.32159 -4.21289,4.42953 -4.21289,8.86523 v 37.06836 c 0,7.3049 0.5893,17.89864 5.72656,25.54493 -6.94234,-3.95524 -9.30469,-16.15518 -9.30469,-22.64844 v -38.23051 c 0,-5.70699 -1.71014,-9.30088 -3.77539,-10.59961 z m -67.00976,0.0391 h 10.40234 c -1.86119,1.04036 -2.95508,3.19482 -2.95508,5.82813 v 66.04484 c 0,3.26891 1.16199,5.38547 2.60547,6.57422 h -11.65625 c 1.61731,-1.29872 2.84179,-3.51134 2.8418,-6.13086 v -68.41211 c 0,-2.47058 -0.59766,-3.33532 -1.23828,-3.9043 z m 291.23437,0 h 10.40235 c -1.86119,1.04036 -2.95313,3.19482 -2.95313,5.82813 v 66.04484 c 0,3.26891 1.16004,5.38547 2.60352,6.57422 h -11.65625 c 1.61731,-1.29872 2.84374,-3.51134 2.84375,-6.13086 v -68.41211 c 0,-2.47058 -0.59962,-3.33532 -1.24024,-3.9043 z m -121.79297,0.0234 c 6.44023,-0.20213 14.10352,6.58635 14.10352,16.48438 v 1.65234 c 0,11.51739 -1.71683,17.85182 -11.45312,17.69336 H 775.45312 V 116.4766 c 0,-6.54599 3.13607,-8.61678 7.38086,-8.75 z m -19.57812,0.10742 h 12.63867 c -2.50976,1.18558 -5.10351,4.31956 -5.10351,11.37891 v 55.77734 c 0,5.58898 1.8038,9.75942 4.04296,11.01953 h -11.26953 c 1.15477,-1.25434 2.83985,-4.57703 2.83985,-10.0039 v -58.33594 c 0,-5.9864 -1.76695,-8.55987 -3.14844,-9.83594 z m -638.43164,0.25781 c 21.82887,0 21.82812,28.60712 21.82812,38.84961 0,10.24249 7.5e-4,38.90821 -21.82812,38.90821 -21.82886,0 -21.82813,-28.66098 -21.82813,-38.90821 0,-10.24723 -7.3e-4,-38.8496 21.82813,-38.84961 z m 605.45508,0.80665 h 7.52734 c -1.2902,1.4372 -2.5655,3.776 -3.33594,6.06835 -0.81113,-2.0735 -2.69333,-4.65774 -4.1914,-6.06835 z m 61.39258,0.5957 c 8.41645,2.85584 11.01448,7.96111 11.53515,14.31836 0.73107,8.92614 -2.69607,14.62261 -7.49805,16.88476 3.90095,-9.01174 5.03028,-23.51747 -4.0371,-31.20312 z m -577.08008,1.10156 c 0,0 9.34674,3.68827 9.13672,20.33985 -0.21785,17.27345 -9.98047,18.8496 -9.98047,18.8496 0,0 5.44257,-3.89167 5.71484,-19.37304 0.27733,-15.7692 -4.87109,-19.81641 -4.87109,-19.81641 z m 67.95703,0 c 0,0 9.34674,3.68827 9.13672,20.33985 -0.21785,17.27345 -9.98047,18.8496 -9.98047,18.8496 0,0 5.44257,-3.89167 5.71484,-19.37304 0.27733,-15.7692 -4.87109,-19.81641 -4.87109,-19.81641 z m 366.61328,0.125 c 5.45676,2.71571 8.6891,7.81659 9.39258,14.99024 0.71365,7.27728 -1.44672,13.54139 -8.66602,15.12695 4.93771,-6.00413 5.80191,-23.60014 -0.72656,-30.11719 z m 291.23437,0 c 5.45677,2.71571 8.69106,7.81659 9.39454,14.99024 0.71364,7.27728 -1.44867,13.54139 -8.66797,15.12695 4.9377,-6.00413 5.80191,-23.60014 -0.72657,-30.11719 z m -833.70117,3.48043 c -12.70023,15.89166 -13.367086,51.67903 1.49024,66.13672 -5.82888,-3.88252 -15.361319,-12.90717 -15.199222,-35.3711 0.09035,-12.52041 5.170621,-22.58155 13.708982,-30.76562 z m 36.23242,0 c 8.53838,8.18407 13.61668,18.24521 13.70704,30.76562 0.1621,22.46393 -9.3684,31.48858 -15.19727,35.3711 14.85734,-14.45769 14.19048,-50.24506 1.49023,-66.13672 z m -108.505855,8.06055 29.736328,44.92968 c 0,0 7.357975,11.00215 13.515625,18.83399 h -25.83789 c 5.572886,-4.82888 6.141338,-13.76224 3.160156,-18.92578 L 29.277344,127.34179 Z M 570.25,134.32617 h 16.95703 c -3.08561,2.39238 -5.76953,6.90235 -5.76953,19.875 0,9.09765 -0.44334,16.18146 3.875,18.875 -10.29165,2.08333 -14.52085,7.47917 -24.6875,10.375 9.02849,-5.48152 13.25,-12.91424 13.25,-16.1875 v -27.9375 c 0,-2.16623 -2.37936,-4.01809 -3.625,-5 z M 345,141.32226 v 6.10547 c -0.91549,-1.18237 -2.31081,-2.09942 -3.98242,-2.74804 1.63826,-0.90808 2.84454,-2.07129 3.98242,-3.35743 z m 517.79102,0.0293 v 6.10156 c -0.91492,-1.18163 -2.3099,-2.09786 -3.98047,-2.74609 1.63724,-0.90751 2.8433,-2.07012 3.98047,-3.35547 z m -87.3379,2.97852 h 10.26563 c 10.77471,0 17.46484,4.45337 17.46484,22.83203 v 2.59375 c 0,10.13731 -4.49785,17 -19.18359,17 -6.21706,0 -8.54688,-1.75178 -8.54688,-14.25 z m 25.03126,4.5664 c 4.69779,2.79733 9.37865,7.57188 9.88085,15.39844 0.85625,13.34415 -3.06109,20.49056 -13.22461,21.30469 10.91135,-4.59199 8.50798,-28.94823 3.34376,-36.70313 z m -159.41211,1.38086 c 5.43267,3.94085 10.55424,16.24283 11.62304,19.27735 0.72259,2.05158 4.88379,14.91146 13.08594,19.18359 -9.9318,0 -16.39716,-18.65505 -17.29883,-20.2168 -1.41212,-2.44586 -3.28501,-10.52495 -7.41015,-18.24414 z m 291.23437,0 c 5.43268,3.94085 10.5562,16.24283 11.625,19.27735 0.72259,2.05158 4.88183,14.91146 13.08398,19.18359 -9.9318,0 -16.39715,-18.65505 -17.29882,-20.2168 -1.41212,-2.44586 -3.28501,-10.52495 -7.41016,-18.24414 z m -567.91211,20.01367 -6.91797,16.05469 h -16.98437 c 5.9979,-0.93792 13.39306,-5.16492 23.90234,-16.05469 z m 517.7793,0.01 -6.91602,16.04492 h -16.97265 c 5.99417,-0.93733 13.38591,-5.16192 23.88867,-16.04492 z m -445.04688,1.09961 -7.09961,14.85351 h -19.82031 c 9.76901,-1.15845 18.59301,-6.82385 26.91992,-14.85351 z" />
</svg>
