<?xml version="1.0" encoding="UTF-8" standalone="no"?>
<!-- Created with Inkscape (http://www.inkscape.org/) -->

<svg
   version="1.1"
   id="kgpf-logo"
   width="990"
   height="250"
   viewBox="0 0 990 249.99999"
   xmlns="http://www.w3.org/2000/svg"
   xmlns:svg="http://www.w3.org/2000/svg">
  <defs
     id="defs">
    <linearGradient
       id="kgpf-logo-tertiary"
       gradientTransform="matrix(1,0,0,0.89353508,378.18794,100.35449)">
      <stop
         style="stop-color:#394a6f;stop-opacity:1;"
         offset="0"
         id="stop1" />
    </linearGradient>
    <linearGradient
       id="kgpf-logo-secondary-bg">
      <stop
         style="stop-color:#ffffff;stop-opacity:0;"
         offset="0"
         id="stop2" />
    </linearGradient>
    <linearGradient
       id="kgpf-logo-secondary-fg">
      <stop
         style="stop-color:#a98b7c;stop-opacity:1;"
         offset="0"
         id="stop3" />
    </linearGradient>
    <linearGradient
       id="kgpf-logo-primary-bg">
      <stop
         style="stop-color:#ffffff;stop-opacity:0;"
         offset="0"
         id="stop4" />
    </linearGradient>
    <linearGradient
       id="kgpf-logo-primary-fg">
      <stop
         style="stop-color:#39486f;stop-opacity:1;"
         offset="0"
         id="stop5" />
    </linearGradient>
  </defs>
  <!-- Public Finance -->
  <g
     id="public-finance">
    <path
       style="fill:url(#kgpf-logo-tertiary);stroke-width:0.999996"
       d="m 841.93063,218.63184 v 0.35547 c 3.4579,0 5.24414,-5.1e-4 5.24414,2.28513 v 19.68145 c 0,2.17495 -1.13094,2.17576 -5.24414,2.17576 v 0.37695 h 28.91015 l 1.86914,-7.20696 -0.66601,-0.17187 c -1.93296,2.34096 -5.78025,7.00188 -9.22461,7.00188 h -5.48047 c -2.45967,0 -4.36328,-8.1e-4 -4.36328,-2.17576 v -9.4999 h 4.36328 c 3.95597,-0.0149 5.48047,2.45077 5.48047,5.28119 h 0.59961 v -11.20692 h -0.59961 c 0,1.57276 -1.13518,5.52534 -5.48047,5.52534 h -4.36328 v -9.78116 c 0,-2.28564 1.01187,-2.28513 3.09375,-2.28513 h 4.77344 c 5.48769,0 8.36931,5.39482 9.64453,7.08 l 0.60742,-0.17188 -1.61133,-7.26359 z"
       id="public-finance-e" />
    <path
       style="fill:url(#kgpf-logo-tertiary);stroke-width:0.982635"
       d="m 801.97048,218.63184 c -20.97808,0 -23.27693,24.87476 -0.29882,24.87476 7.37456,0 10.80177,-3.21177 13.09961,-7.2116 h -0.5254 c -1.12643,1.97052 -4.44712,6.76697 -12.22657,6.35542 -14.06593,0.0627 -13.39207,-23.72853 0,-23.63197 5.57713,0.0402 9.6871,3.24565 11.71289,8.15266 h 0.51368 v -8.11306 h -0.51368 c -1.50217,2.01964 -2.42737,1.76305 -3.86328,1.11832 -2.42409,-1.08842 -5.10998,-1.50282 -7.89843,-1.54453 z"
       id="public-finance-c2" />
    <path
       style="fill:url(#kgpf-logo-tertiary);stroke-width:0.991237"
       d="m 677.11573,218.63207 -12.83984,21.26684 c -1.50104,2.48619 -2.42576,3.23744 -4.95508,3.23744 v 0.37037 h 11.58008 v -0.37037 c -5.76348,0 -7.6426,8e-4 -5.6875,-3.23744 l 3.94336,-6.53241 h 10.93944 l 3.70898,6.53241 c 1.0894,1.9181 1.83894,3.23744 -2.43164,3.23744 h -3.11717 v 0.37037 h 17.02148 v -0.37037 c -3.40224,0 -3.69912,-0.52487 -4.61523,-2.13781 l -12.70313,-22.36647 z m -2.32227,5.40028 5.05859,8.90437 H 669.4165 Z"
       id="public-finance-a" />
    <path
       style="fill:url(#kgpf-logo-tertiary);stroke-width:0.999742"
       d="m 596.43489,218.64481 v 0.35528 c 1.52724,0 3.04859,-4.5e-4 5.57421,2.3523 v 18.48458 c 0,3.29404 -2.11226,3.29323 -5.57421,3.29323 v 0.37675 h 12.50194 v -0.37675 c -4.48888,0 -6.13477,8.1e-4 -6.13477,-3.29323 V 222.0903 l 23.46681,21.41665 h 0.61328 v -21.57478 c 0,-2.93247 3.03814,-2.93208 5.2793,-2.93208 v -0.35528 h -12.60156 v 0.35528 c 3.09867,0 6.53125,-3.9e-4 6.53125,2.93208 v 15.56617 l -20.67256,-18.8665 z"
       id="public-finance-n1" />
    <path
       style="fill:url(#kgpf-logo-tertiary);stroke-width:1"
       d="m 554.05482,218.63184 v 0.35547 c 2.4247,0 3.86132,9e-5 4.49414,0.81055 0.26126,0.33459 0.38477,0.80673 0.38477,1.47461 v 19.68174 c 0,2.17498 -1.4532,2.17579 -4.87891,2.17579 v 0.37695 h 15.2207 V 243.13 c -3.55497,0 -4.97656,-8.1e-4 -4.97656,-2.17579 v -19.68174 c 0,-2.28567 1.4216,-2.28516 4.97656,-2.28516 v -0.35547 z"
       id="public-finance-i2" />
    <path
       style="fill:url(#kgpf-logo-tertiary)"
       d="m 497.02438,218.63172 v 0.35547 c 3.25664,0 5.23047,-5.1e-4 5.23047,2.28515 v 19.68165 c 0,2.17497 -2.1197,2.17578 -5.23047,2.17578 v 0.37695 h 17.21483 v -0.37695 c -3.86503,0 -6.1621,-8.1e-4 -6.1621,-2.17578 v -9.5 h 5.1621 c 3.40625,0 5.16406,2.73057 5.16406,5.29296 h 0.56446 v -11.30273 h -0.56446 c 0,2.06981 -1.75781,5.60938 -5.16406,5.60938 h -5.1621 v -9.78126 c 0,-2.28566 1.53498,-2.28515 3.5996,-2.28515 h 3.75 c 5.43903,0 7.74945,3.0167 10.83594,7.67187 l 0.63281,-0.14843 -1.82227,-7.87891 z"
       id="public-finance-f" />
    <path
       style="fill:url(#kgpf-logo-tertiary);stroke-width:0.982642"
       d="m 414.50679,218.63184 c -20.97809,0 -23.27496,24.87511 -0.29687,24.87511 7.37457,0 10.80176,-3.21182 13.0996,-7.2117 h -0.52539 c -1.12643,1.97055 -4.44712,6.76706 -12.22656,6.3555 -14.06594,0.0627 -13.39208,-23.72886 0,-23.6323 5.57712,0.0402 9.68514,3.2457 11.71094,8.15278 h 0.51562 v -8.11318 h -0.51562 c -1.50219,2.01968 -2.42542,1.76308 -3.86133,1.11834 -2.42409,-1.08843 -5.11193,-1.50284 -7.90039,-1.54455 z"
       id="public-finance-c1" />
    <path
       style="fill:url(#kgpf-logo-tertiary);stroke-width:1"
       d="m 354.53689,218.63184 v 0.35547 c 2.42468,0 3.86133,9e-5 4.49414,0.81055 0.26126,0.33459 0.38671,0.80673 0.38671,1.47461 v 19.68174 c 0,2.17498 -1.45515,2.17579 -4.88085,2.17579 v 0.37695 h 15.2207 V 243.13 c -3.55498,0 -4.97656,-8.1e-4 -4.97656,-2.17579 v -19.68174 c 0,-2.28567 1.42158,-2.28516 4.97656,-2.28516 v -0.35547 z"
       id="public-finance-i1" />
    <path
       style="fill:url(#kgpf-logo-tertiary);stroke-width:1"
       d="m 297.97505,218.63184 v 0.35547 c 3.45498,0 4.83984,-3.6e-4 4.83984,2.57618 v 19.35947 c 0,2.2073 -1.43491,2.20704 -4.83984,2.20704 v 0.37695 h 26.55859 l 1.90039,-8.9434 c -1.91584,3.02509 -6.23487,8.56645 -9.73241,8.56645 h -5.00977 c -1.9434,0 -3.42969,-4.3e-4 -3.42969,-2.3047 v -19.39072 c 0,-2.44726 1.25104,-2.44727 4.97656,-2.44727 v -0.35547 z"
       id="public-finance-l" />
    <path
       style="fill:url(#kgpf-logo-tertiary)"
       d="m 240.99721,218.63172 v 0.35547 c 3.30397,0 4.90235,-2e-5 4.90235,2.14648 v 19.80469 c 0,2.19051 -1.71414,2.19141 -4.90235,2.19141 v 0.37695 h 19.36523 c 9.72426,0 15.25521,-10.60001 0.17773,-13.04688 11.41863,-1.77587 8.95134,-11.82812 -2.0039,-11.82812 z m 12.3789,0.35547 h 2.54688 c 7.37999,0 9.87569,11.61328 -1.05664,11.61328 h -3.50196 v -10.14063 c 0,-1.47159 1.36925,-1.47265 2.01172,-1.47265 z m -2.01172,12.06641 5.45508,0.0156 c 9.33109,0 8.34755,12.06055 0.88281,12.06055 h -3.82031 c -0.42115,0 -2.51641,-3.8e-4 -2.56639,-1.8418 z"
       id="public-finance-b" />
    <path
       style="fill:url(#kgpf-logo-tertiary);stroke-width:0.987876"
       d="m 179.94904,218.63184 v 0.35072 c 3.93957,0 4.39258,0.60302 4.39258,2.39781 l 0.0332,15.48095 c 0,8.30559 24.60905,9.68121 24.5625,-0.80816 v -14.02283 c 0,-3.05136 2.01481,-3.05133 3.95703,-3.04777 v -0.35072 h -10.8457 v 0.35072 c 3.33645,0 6.15625,-0.003 6.15625,2.77329 v 13.74646 c 0,8.3458 -18.42188,8.58199 -18.42188,1.44669 v -15.83357 c 0,-2.13596 2.62547,-2.13287 5.6836,-2.13287 v -0.35072 z"
       id="public-finance-u" />
    <path
       style="fill:url(#kgpf-logo-tertiary)"
       d="m 123.30758,218.63172 v 0.33789 c 4.85428,0 4.9375,0.40253 4.9375,3.44336 v 17.88477 c 0,2.4704 -0.64698,2.82226 -3.05079,2.82226 l -1.88671,0.01 v 0.37695 h 16.03905 V 243.13 c -5.06997,0 -5.70898,-0.0771 -5.70898,-2.56836 v -8.27344 h 6.44922 c 14.97493,0 16.40175,-13.65625 -0.0977,-13.65625 z m 12.99218,0.35947 h 2.33593 c 9.39229,0 9.70451,12.88281 -0.0683,12.88281 h -4.92969 l 0.0234,-10.50781 c 1e-5,-1.31082 -0.0228,-2.37501 2.63868,-2.375 z"
       id="public-finance-p" />
    <path
       style="fill:url(#kgpf-logo-tertiary);stroke-width:0.999742"
       d="m 722.4372,218.64481 v 0.35528 c 1.52724,0 3.04859,-4.5e-4 5.57421,2.3523 v 18.48458 c 0,3.29404 -2.11226,3.29323 -5.57421,3.29323 v 0.37675 h 12.50194 v -0.37675 c -4.48888,0 -6.13477,8.1e-4 -6.13477,-3.29323 V 222.0903 l 23.46681,21.41665 h 0.61328 v -21.57478 c 0,-2.93247 3.03814,-2.93208 5.2793,-2.93208 v -0.35528 H 745.5622 v 0.35528 c 3.09867,0 6.53125,-3.9e-4 6.53125,2.93208 v 15.56617 l -20.67256,-18.8665 z"
       id="path3" />
  </g>
  <!-- Ampersand -->
  <g
     id="ampersand"
     style="display:inline"
     transform="translate(19.395457,6.4930466)">
    <path
       id="ampersand-bg"
       style="display:inline;fill:url(#kgpf-logo-secondary-bg)"
       d="m 399.69394,92.614371 c -18.98364,9.740219 -29.24629,31.948759 -23.24609,54.341799 6.0002,22.39303 28.0289,37.20525 50.02734,37.0957 C 384.765,169.8952 380.02949,119.68185 399.69394,92.614371 Z M 413.4205,9.8819492 C 392.5648,29.539916 399.61579,60.16586 413.57089,77.58898 c 10.3493,12.921227 21.11941,25.12073 33.56641,44.00977 12.44699,18.88904 22.23126,54.10493 53.58008,60.95117 C 474.37505,165.49407 459.28947,113.32058 444.8873,95.629996 430.48512,77.939414 390.2386,44.042435 413.4205,9.8819492 Z m 34.29297,-2.4980469 c 14.52557,16.3852217 15.17637,43.3476557 3.7207,63.1894527 9.65211,-9.954168 13.22657,-20.459953 12.72657,-32.880859 -0.62423,-15.506989 -6.64707,-24.94922 -16.44727,-30.3085937 z m 37.73828,76.4804687 c 6.36704,3.94819 14.01287,15.290416 13.5,29.244139 2.91471,-11.00411 8.51116,-23.114939 16.17578,-29.244139 z" />
    <path
       id="ampersand-fg"
       style="fill:url(#kgpf-logo-secondary-fg)"
       d="M 436.86018,3.9036353e-6 C 410.80087,-0.0098361 398.00724,22.622539 398.00724,41.703226 c 0,10.420897 2.80688,23.81763 16.12833,40.945215 -67.05386,18.592449 -47.76724,104.912109 10.25,104.912109 20.12252,0 32.83253,-6.82138 46.92969,-20.23047 9.27349,11.84235 20.69454,20.12224 32.75392,20.23242 10.86125,0.0992 22.25617,-6.56509 32.791,-20.85546 -16.12577,16.18607 -36.24964,23.91933 -53.18359,-15.72461 18.11771,-24.47094 25.94518,-63.127977 55.49414,-67.117192 v -2.960937 h -75.26367 v 2.960937 c 20.39064,0 23.86254,3.845357 28.89453,13.304688 7.1044,13.355144 2.00629,32.296714 -10.84961,49.298834 C 472.34733,123.20943 464.805,100.86711 443.97346,79.169926 484.90833,62.267565 476.30356,0.01489737 436.86018,3.9036353e-6 Z M 441.60628,76.427738 C 423.02741,59.300382 391.17133,3.4850464 433.63578,3.4850464 c 20.73761,0 34.3669,48.8386156 7.9705,72.9426916 z M 447.7137,7.3847695 c 9.80021,5.3593795 15.82303,14.8015885 16.44726,30.3085935 0.5,12.420918 -3.07444,22.926682 -12.72656,32.88086 11.45568,-19.841817 10.80488,-46.804215 -3.7207,-63.1894535 z M 413.42073,9.8828164 C 390.2388,44.043336 430.48581,77.939766 444.888,95.630366 c 14.40219,17.690604 29.48688,69.864554 55.82923,86.920424 -31.34885,-6.84624 -41.1327,-42.06212 -53.5797,-60.95118 C 434.69052,102.71056 423.92043,90.511087 413.57112,77.589848 399.616,60.16671 392.56501,29.540803 413.42073,9.8828164 Z m 72.03125,73.9824216 h 29.67578 c -7.66463,6.129206 -13.26107,18.240022 -16.17578,29.244142 0.51287,-13.953739 -7.13296,-25.295948 -13.5,-29.244142 z m -69.35742,1.302735 c 26.41993,33.968487 36.64401,51.148287 53.125,79.318357 -55.63743,60.71258 -104.89249,-51.32721 -53.125,-79.318357 z m -16.40039,7.447265 c -19.66447,27.067502 -14.92898,77.280812 26.78125,91.437502 -21.99846,0.10955 -44.02714,-14.70265 -50.02735,-37.0957 -6.0002,-22.39306 4.26244,-44.60157 23.2461,-54.341802 z" />
  </g>
  <!-- Koppel Gruber -->
  <g
     id="koppel-gruber"
     style="display:inline">
    <g
       id="koppel-gruber-r2"
       transform="translate(18.057846,6.4930466)">
      <path
         id="koppel-gruber-r2-bg"
         style="display:inline;fill:url(#kgpf-logo-primary-bg)"
         d="m 904.62695,107.7032 c 0.64062,0.56898 1.24024,1.43372 1.24024,3.9043 v 68.41211 c -1e-5,2.61952 -1.22644,4.83214 -2.84375,6.13086 h 11.65625 c -1.44348,-1.18875 -2.60352,-3.30531 -2.60352,-6.57422 v -66.04492 c 0,-2.63331 1.09194,-4.78777 2.95313,-5.82813 z m 35.76953,3.01758 c 6.52848,6.51704 5.66426,24.11306 0.72657,30.11719 7.21929,-1.58556 9.3816,-7.84968 8.66797,-15.12695 -0.70348,-7.17365 -3.93777,-12.27453 -9.39454,-14.99024 z m -8.08984,39.55656 c 4.12515,7.71918 5.99804,15.79828 7.41016,18.24414 0.90167,1.56175 7.36703,20.2168 17.29882,20.2168 -8.20214,-4.27213 -12.36139,-17.13202 -13.08398,-19.18359 -1.0688,-3.03452 -6.19232,-15.3365 -11.625,-19.27735 z" />
      <path
         id="koppel-gruber-r2-fg"
         style="display:inline;fill:url(#kgpf-logo-primary-fg)"
         d="m 897.48242,106.19338 c 4.60508,0 7.05274,2.11885 7.05274,6.08789 v 66.3418 c 0,4.85056 -2.47401,8.05048 -8.42383,8.89257 h 29.30664 c -6.22973,0 -9.38672,-3.02132 -9.38672,-7.05273 v -34.85354 h 4.85156 c 8.13079,0 9.96844,2.51766 15.25977,17.7168 1.17788,3.38339 6.64576,20.25237 16.49609,25.93945 2.64236,1.52557 10.49261,1.56699 14.70508,-0.46484 -10.20809,0.0225 -13.73602,-5.77141 -16.57617,-14.65234 -2.66672,-8.33866 -6.06996,-15.62466 -9.56836,-19.96485 -4.27279,-5.30089 -6.41769,-6.59633 -10.4707,-8.37304 18.82335,-0.81534 25.93517,-6.97021 23.80468,-22.82618 -0.79734,-5.93418 -7.58768,-16.79101 -23.90429,-16.79101 z m 29.19531,1.16013 c 9.02889,0 16.80278,4.75135 16.80274,16.38672 v 1.59961 c -4e-5,12.58692 -2.88891,18.33789 -16.36133,18.33789 h -11.08789 v -28.92578 c 0,-5.01146 2.67733,-7.39844 10.64648,-7.39844 z m -22.05078,0.34969 h 10.40235 c -1.86119,1.04036 -2.95313,3.19482 -2.95313,5.82813 v 66.04484 c 0,3.26891 1.16004,5.38547 2.60352,6.57422 h -11.65625 c 1.61731,-1.29872 2.84374,-3.51134 2.84375,-6.13086 v -68.41211 c 0,-2.47058 -0.59962,-3.33532 -1.24024,-3.9043 z m 35.76953,3.01754 c 5.45677,2.71571 8.69106,7.81659 9.39454,14.99024 0.71364,7.27728 -1.44867,13.54139 -8.66797,15.12695 4.9377,-6.00413 5.80191,-23.60014 -0.72657,-30.11719 z m -8.08984,39.5566 c 5.43268,3.94085 10.5562,16.24283 11.625,19.27735 0.72259,2.05158 4.88183,14.91146 13.08398,19.18359 -9.9318,0 -16.39715,-18.65505 -17.29882,-20.2168 -1.41212,-2.44586 -3.28501,-10.52495 -7.41016,-18.24414 z" />
    </g>
    <g
       id="koppel-gruber-e2"
       transform="translate(18.057846,6.4930466)">
      <path
         id="koppel-gruber-e2-bg"
         style="display:inline;fill:url(#kgpf-logo-primary-bg)"
         d="m 829.82422,107.5957 c 1.62948,1.16051 3.23828,2.96574 3.23828,6.08203 v 63.61914 c 0,2.04591 -1.03022,7.25306 -5.00977,9.04883 l 14.7168,0.0117 c -3.13045,-0.81403 -4.63086,-3.1829 -4.63086,-6.49219 v -64.2832 c 0,-3.87285 1.24818,-6.73602 3.47266,-7.98633 z m 31.31055,0 c 6.68117,2.26929 11.66812,6.15032 15.82226,12.00781 l -2.55469,-12.00781 z m 1.65625,33.75586 c -1.13717,1.28535 -2.34323,2.44796 -3.98047,3.35547 1.67057,0.64823 3.06555,1.56446 3.98047,2.74609 z m 19.38281,28.94945 c -10.50275,10.88299 -17.89451,15.10759 -23.88867,16.04492 h 16.97265 z" />
      <path
         id="koppel-gruber-e2-fg"
         style="display:inline;fill:url(#kgpf-logo-primary-fg)"
         d="m 821.73242,106.19338 c 4.66337,0.96893 9.7207,2.49361 9.7207,7.75195 v 61.53516 c 0,6.78048 -2.63744,10.94093 -9.6582,10.89648 v 1.18555 h 58.22461 l 7.34961,-25.72266 c -13.76706,16.78875 -23.36112,23.06752 -31.56641,23.29688 h -5.16211 c -4.98706,0 -8.30664,-3.9e-4 -8.30664,-4.00782 v -35.15234 h 7.1504 c 12.63517,0 15.49326,4.44222 17.87109,18.13281 v -37.90625 c -2.78219,11.52754 -5.23592,18.36328 -17.87109,18.36328 h -7.1504 v -30.90429 c 0,-4.74606 2.56294,-5.65785 9.98047,-5.72071 12.83129,0.0515 21.64121,6.91012 27.83203,20.39844 l -1.19921,-22.14648 z m 8.0918,1.40232 h 11.78711 c -2.22448,1.25031 -3.47266,4.11348 -3.47266,7.98633 v 64.2832 c 0,3.30929 1.50041,5.67816 4.63086,6.49219 l -14.7168,-0.0117 c 3.97955,-1.79577 5.00977,-7.00292 5.00977,-9.04883 v -63.61914 c 0,-3.1163 -1.6088,-4.92152 -3.23828,-6.08203 z m 31.31055,0 h 13.26757 l 2.55469,12.00781 c -4.15415,-5.8575 -9.14108,-9.73852 -15.82226,-12.00781 z m 1.65625,33.75586 v 6.10156 c -0.91492,-1.18163 -2.3099,-2.09786 -3.98047,-2.74609 1.63724,-0.90751 2.8433,-2.07012 3.98047,-3.35547 z m 19.38281,28.94945 -6.91602,16.04492 h -16.97265 c 5.99417,-0.93733 13.38591,-5.16192 23.88867,-16.04492 z" />
    </g>
    <g
       id="koppel-gruber-b"
       transform="translate(18.057846,6.4930466)">
      <path
         id="koppel-gruber-b-bg"
         style="display:inline;fill:url(#kgpf-logo-primary-bg)"
         d="m 763.25586,107.83406 c 1.38149,1.27607 3.14844,3.84955 3.14844,9.83594 v 58.33594 c 0,5.42686 -1.68508,8.74957 -2.83985,10.0039 h 11.26953 c -2.23915,-1.2601 -4.04296,-5.43055 -4.04296,-11.01953 v -55.77734 c 0,-7.05934 2.59375,-10.19333 5.10351,-11.37891 z m 28.41602,1.66016 c 9.06737,7.68564 7.93805,22.19139 4.0371,31.20312 4.80198,-2.26214 8.22912,-7.95863 7.49805,-16.88476 -0.52067,-6.35725 -3.11871,-11.46252 -11.53515,-14.31836 z m 8.8125,39.40226 c 5.16421,7.75489 7.56758,32.11114 -3.34376,36.70313 10.16351,-0.81413 14.08086,-7.96055 13.22461,-21.30469 -0.5022,-7.82655 -5.18307,-12.60111 -9.88085,-15.39844 z" />
      <path
         id="koppel-gruber-b-fg"
         style="display:inline;fill:url(#kgpf-logo-primary-fg)"
         d="m 757.125,106.19338 c 5.5688,1.30908 7.79687,4.14243 7.79688,11.91797 v 57.6289 c 0,5.40502 -1.54034,11.63429 -7.5879,11.82227 H 793.75 c 13.9626,0 21.08513,-4.24718 20.72656,-21.19141 -0.31245,-14.76467 -6.68206,-20.8581 -21.85156,-22.61523 9.65869,-0.72812 14.56255,-5.99735 14.65625,-13.9375 v -6.21875 c 0,-7.39159 -6.34003,-17.40625 -24.4375,-17.40625 z m 25.70898,1.53322 c 6.44023,-0.20213 14.10352,6.58635 14.10352,16.48438 v 1.65234 c 0,11.51739 -1.71683,17.85182 -11.45312,17.69336 H 775.45312 V 116.4766 c 0,-6.54599 3.13607,-8.61678 7.38086,-8.75 z m -19.57812,0.10742 h 12.63867 c -2.50976,1.18558 -5.10351,4.31956 -5.10351,11.37891 v 55.77734 c 0,5.58898 1.8038,9.75942 4.04296,11.01953 h -11.26953 c 1.15477,-1.25434 2.83985,-4.57703 2.83985,-10.0039 v -58.33594 c 0,-5.9864 -1.76695,-8.55987 -3.14844,-9.83594 z m 28.41602,1.66016 c 8.41645,2.85584 11.01448,7.96111 11.53515,14.31836 0.73107,8.92614 -2.69607,14.62261 -7.49805,16.88476 3.90095,-9.01174 5.03028,-23.51747 -4.0371,-31.20312 z m -16.21876,34.8359 h 10.26563 c 10.77471,0 17.46484,4.45337 17.46484,22.83203 v 2.59375 c 0,10.13731 -4.49785,17 -19.18359,17 -6.21706,0 -8.54688,-1.75178 -8.54688,-14.25 z m 25.03126,4.5664 c 4.69779,2.79733 9.37865,7.57188 9.88085,15.39844 0.85625,13.34415 -3.06109,20.49056 -13.22461,21.30469 10.91135,-4.59199 8.50798,-28.94823 3.34376,-36.70313 z" />
    </g>
    <g
       id="koppel-gruber-u"
       transform="translate(18.057846,6.4930466)">
      <path
         id="koppel-gruber-u-bg"
         style="display:inline;fill:url(#kgpf-logo-primary-bg)"
         d="m 680.40234,107.6641 c 2.06525,1.29873 3.77539,4.89263 3.77539,10.59961 v 38.23047 c 0,6.49325 2.36236,18.6932 9.30469,22.64844 -5.13725,-7.64629 -5.72656,-18.24003 -5.72656,-25.54493 v -37.06836 c 0,-4.43569 2.11098,-7.54364 4.21289,-8.86523 z m 49.87696,1.23442 c 1.49807,1.4106 3.38027,3.99486 4.1914,6.06835 0.77044,-2.29234 2.04574,-4.63116 3.33594,-6.06835 z" />
      <path
         id="koppel-gruber-u-fg"
         style="display:inline;fill:url(#kgpf-logo-primary-fg)"
         d="m 672.13086,106.19338 c 2.41488,0 10.68555,0.60791 10.68555,11.9707 v 38.74023 c 0,19.28694 11.52198,32.05635 31.20898,30.66016 16.8537,-1.19526 21.99023,-16.95563 21.99023,-34.45898 l 0.0313,-26.61328 c 0,-7.81738 2.98731,-19.0686 10.97851,-20.29883 l -28.77148,0.0312 c 8.37185,0.84184 15.91797,5.94998 15.91797,22.85937 v 23.95899 c 0,28.01913 -13.42159,31.29986 -20.14844,32.17773 -11.86614,1.54856 -21.41797,-11.74183 -21.41797,-26.44531 v -41.52344 c 0,-8.81257 5.10873,-11.05859 10.11133,-11.05859 z m 8.27148,1.47072 h 11.56641 c -2.10191,1.32159 -4.21289,4.42953 -4.21289,8.86523 v 37.06836 c 0,7.3049 0.5893,17.89864 5.72656,25.54493 -6.94234,-3.95524 -9.30469,-16.15518 -9.30469,-22.64844 v -38.23051 c 0,-5.70699 -1.71014,-9.30088 -3.77539,-10.59961 z m 49.87696,1.23438 h 7.52734 c -1.2902,1.4372 -2.5655,3.776 -3.33594,6.06835 -0.81113,-2.0735 -2.69333,-4.65774 -4.1914,-6.06835 z" />
    </g>
    <g
       id="koppel-gruber-r1"
       transform="translate(18.057846,6.4930466)">
      <path
         id="koppel-gruber-r1-bg"
         style="display:inline;fill:url(#kgpf-logo-primary-bg)"
         d="m 613.39258,107.7032 c 0.64062,0.56898 1.23828,1.43372 1.23828,3.9043 v 68.41211 c -10e-6,2.61952 -1.22449,4.83214 -2.8418,6.13086 h 11.65625 c -1.44348,-1.18875 -2.60547,-3.30531 -2.60547,-6.57422 v -66.04492 c 0,-2.63331 1.09389,-4.78777 2.95508,-5.82813 z m 35.76953,3.01758 c 6.52846,6.51704 5.66427,24.11306 0.72656,30.11719 7.21929,-1.58556 9.37967,-7.84968 8.66602,-15.12695 -0.70348,-7.17365 -3.93583,-12.27453 -9.39258,-14.99024 z m -8.08984,39.55656 c 4.12513,7.71918 5.99803,15.79828 7.41015,18.24414 0.90167,1.56175 7.36704,20.2168 17.29883,20.2168 -8.20214,-4.27213 -12.36335,-17.13202 -13.08594,-19.18359 -1.0688,-3.03452 -6.19038,-15.3365 -11.62304,-19.27735 z" />
      <path
         id="koppel-gruber-r1-fg"
         style="display:inline;fill:url(#kgpf-logo-primary-fg)"
         d="m 606.24609,106.19338 c 4.60508,0 7.05274,2.11885 7.05274,6.08789 v 66.3418 c 0,4.85056 -2.47205,8.05048 -8.42188,8.89257 h 29.30664 c -6.22972,0 -9.38671,-3.02132 -9.38671,-7.05273 v -34.85354 h 4.85156 c 8.13079,0 9.96844,2.51766 15.25976,17.7168 1.17788,3.38339 6.64577,20.25237 16.4961,25.93945 2.64235,1.52557 10.49261,1.56699 14.70508,-0.46484 -10.20809,0.0225 -13.73798,-5.77141 -16.57813,-14.65234 -2.66672,-8.33866 -6.06801,-15.62466 -9.56641,-19.96485 -4.27278,-5.30089 -6.41768,-6.59633 -10.4707,-8.37304 18.82335,-0.81534 25.93322,-6.97021 23.80274,-22.82618 -0.79734,-5.93418 -7.58574,-16.79101 -23.90235,-16.79101 z m 29.19532,1.16013 c 9.02888,0 16.80472,4.75135 16.80468,16.38672 v 1.59961 c -4e-5,12.58692 -2.88891,18.33789 -16.36132,18.33789 h -11.08789 v -28.92578 c 0,-5.01146 2.67537,-7.39844 10.64453,-7.39844 z m -22.04883,0.34969 h 10.40234 c -1.86119,1.04036 -2.95508,3.19482 -2.95508,5.82813 v 66.04484 c 0,3.26891 1.16199,5.38547 2.60547,6.57422 h -11.65625 c 1.61731,-1.29872 2.84179,-3.51134 2.8418,-6.13086 v -68.41211 c 0,-2.47058 -0.59766,-3.33532 -1.23828,-3.9043 z m 35.76953,3.01754 c 5.45676,2.71571 8.6891,7.81659 9.39258,14.99024 0.71365,7.27728 -1.44672,13.54139 -8.66602,15.12695 4.93771,-6.00413 5.80191,-23.60014 -0.72656,-30.11719 z m -8.08984,39.5566 c 5.43267,3.94085 10.55424,16.24283 11.62304,19.27735 0.72259,2.05158 4.88379,14.91146 13.08594,19.18359 -9.9318,0 -16.39716,-18.65505 -17.29883,-20.2168 -1.41212,-2.44586 -3.28501,-10.52495 -7.41015,-18.24414 z" />
    </g>
    <g
       id="koppel-gruber-g"
       transform="translate(18.057846,6.4930466)">
      <path
         id="koppel-gruber-g-bg"
         style="display:inline;fill:url(#kgpf-logo-primary-bg)"
         d="m 554.68164,75.175778 c 10.96652,3.781245 18.27825,10.309746 25.21289,19.445313 l -5.50195,-18.164063 c -4.42033,1.415527 -13.03439,-0.465781 -19.71094,-1.28125 z m -36.70312,9.369141 c -12.32361,11.563134 -19.8086,25.169121 -19.8086,48.917971 3.64073,43.12781 25.96477,48.67928 36.62305,51.53516 -15.90669,-7.80091 -28.67516,-23.58178 -29.21094,-48.55469 -0.60522,-28.20978 5.16121,-41.399192 12.39649,-51.898441 z M 570.25,134.32617 c 1.24564,0.98191 3.625,2.83377 3.625,5 v 27.9375 c 0,3.27326 -4.22152,10.70599 -13.25,16.1875 10.16664,-2.89583 14.39586,-8.29167 24.6875,-10.375 -4.31834,-2.69354 -3.875,-9.77736 -3.875,-18.875 0,-12.97264 2.68392,-17.48262 5.76953,-19.875 z" />
      <path
         id="koppel-gruber-g-fg"
         style="display:inline;fill:url(#kgpf-logo-primary-fg)"
         d="m 542.98242,72.78906 c -12.79166,0 -46.21289,12.43554 -46.21289,60.01563 0,29.80857 15.49613,54.75781 50.59766,54.75781 18.1491,0 26.63448,-12.21041 42.93359,-13.85547 -2.47322,-1.95419 -3.09375,-4.61405 -3.09375,-8.41992 v -21.03516 c 0,-7.24323 4.62373,-11.44726 14.36328,-11.44726 h -47.90625 c 8.61223,0 18.82813,1.36749 18.82813,8 v 24.43945 c 0,9.95582 -13.82397,20.61523 -25.125,20.61523 -28.53253,0 -35.18946,-32.05975 -35.18946,-55.61718 0,-42.312534 10.2068,-55.332037 30.80469,-55.332037 20.83216,0 35.46224,16.502278 43.8711,35.222657 -4.03377,-11.014576 -5.96485,-25.540325 -5.96485,-36.636719 -14.91304,4.964829 -18.9541,-0.707031 -37.90625,-0.707031 z m 11.69922,2.386718 c 6.67656,0.815469 15.29061,2.696778 19.71094,1.28125 l 5.50195,18.164063 C 572.95988,85.485515 565.64817,78.957026 554.68164,75.175778 Z m -36.70312,9.369141 c -7.23528,10.499259 -13.00171,23.688631 -12.39649,51.898441 0.53578,24.97294 13.30424,40.75378 29.21094,48.55469 -10.65829,-2.85588 -32.98232,-8.40731 -36.62305,-51.53516 0,-23.74887 7.48498,-37.354825 19.8086,-48.917971 z M 570.25,134.32617 h 16.95703 c -3.08561,2.39238 -5.76953,6.90235 -5.76953,19.875 0,9.09765 -0.44334,16.18146 3.875,18.875 -10.29165,2.08333 -14.52085,7.47917 -24.6875,10.375 9.02849,-5.48152 13.25,-12.91424 13.25,-16.1875 v -27.9375 c 0,-2.16623 -2.37936,-4.01809 -3.625,-5 z" />
    </g>
    <g
       id="koppel-gruber-l"
       transform="translate(9.6581342,6.4930466)">
      <path
         id="koppel-gruber-l-bg"
         style="display:inline;fill:url(#kgpf-logo-primary-bg)"
         d="m 384.20117,107.5332 c 0.97834,0.68566 0.97852,1.90774 0.97852,4.16016 v 68.88476 c 0,3.33369 -0.76557,4.75098 -2.26367,5.67578 h 20.7246 c -5.74085,-0.87107 -12.08398,-2.56906 -12.08398,-8.95898 v -65.20117 c 0,-2.69357 0.50071,-3.5633 1.11524,-4.56055 z m 52.92578,63.86742 c -8.3269,8.02965 -17.15092,13.69507 -26.91992,14.85351 h 19.82031 z" />
      <path
         id="koppel-gruber-l-fg"
         style="display:inline;fill:url(#kgpf-logo-primary-fg)"
         d="m 371.75586,106.19538 c 10.54305,0.55182 12.16612,0.31151 12.17969,6.33203 v 66.82422 c 0,6.37728 -1.13647,6.90234 -12.17969,6.90234 v 1.30665 h 63.37109 l 8.35938,-25.93165 c -12.27367,15.14839 -23.5782,23.08985 -36.46875,23.08985 -5.58167,0.0312 -10.8711,-3.34815 -10.8711,-7.8457 v -65.96876 c 0,-4.28198 5.4147,-4.59915 11.68164,-4.70898 z m 12.44531,1.33782 h 8.47071 c -0.61453,0.99725 -1.11524,1.86698 -1.11524,4.56055 v 65.20117 c 0,6.38993 6.34312,8.0879 12.08398,8.95898 h -20.7246 c 1.49811,-0.92481 2.26367,-2.34209 2.26367,-5.67578 v -68.88476 c 0,-2.25242 -1.8e-4,-3.4745 -0.97852,-4.16016 z m 52.92578,63.86742 -7.09961,14.85351 h -19.82031 c 9.76901,-1.15845 18.59301,-6.82385 26.91992,-14.85351 z" />
    </g>
    <g
       id="koppel-gruber-e1"
       transform="translate(4.5984043,6.4930466)">
      <path
         id="koppel-gruber-e1-bg"
         style="display:inline;fill:url(#kgpf-logo-primary-bg)"
         d="m 312.01367,107.5469 c 1.6305,1.16124 3.24024,2.9677 3.24024,6.08594 v 63.65625 c 0,2.04718 -1.02972,7.25975 -5.01172,9.05664 l 14.72461,0.0117 c -3.1324,-0.81454 -4.63477,-3.18476 -4.63477,-6.49609 v -64.32422 c 0,-3.87526 1.25071,-6.73915 3.47656,-7.99024 z m 31.32813,0 c 6.68533,2.27071 11.67727,6.15252 15.83398,12.01368 L 356.61914,107.5469 Z M 345,141.32226 c -1.13788,1.28614 -2.34416,2.44935 -3.98242,3.35743 1.67161,0.64861 3.06693,1.56567 3.98242,2.74804 z m 19.39453,28.96875 c -10.50927,10.88976 -17.90445,15.11677 -23.90234,16.05469 h 16.98437 z" />
      <path
         id="koppel-gruber-e1-fg"
         style="display:inline;fill:url(#kgpf-logo-primary-fg)"
         d="m 303.91602,106.14258 c 4.66626,0.96954 9.72851,2.49619 9.72851,7.75781 v 61.57422 c 0,6.7847 -2.64089,10.94682 -9.66601,10.90234 v 1.18555 h 58.26171 l 7.35352,-25.73828 c -13.77562,16.79918 -23.37555,23.08104 -31.58594,23.31054 h -5.16601 c -4.99017,0 -8.31055,1.5e-4 -8.31055,-4.00976 v -35.17383 h 7.1543 c 12.64302,0 15.5035,4.44348 17.88281,18.14258 v -37.92774 c -2.78392,11.53471 -5.23979,18.375 -17.88281,18.375 h -7.1543 v -30.92382 c 0,-4.749 2.56419,-5.6617 9.98633,-5.72461 12.83927,0.0515 21.65493,6.9154 27.84961,20.41211 l -1.19922,-22.16211 z m 8.09765,1.40432 h 11.79492 c -2.22586,1.25109 -3.47656,4.11498 -3.47656,7.99024 v 64.32422 c 0,3.31134 1.50237,5.68155 4.63477,6.49609 l -14.72461,-0.0117 c 3.98201,-1.79689 5.01172,-7.00946 5.01172,-9.05664 v -63.65625 c 0,-3.11824 -1.60974,-4.9247 -3.24024,-6.08594 z m 31.32813,0 h 13.27734 l 2.55664,12.01368 c -4.15672,-5.86116 -9.14864,-9.74297 -15.83398,-12.01368 z M 345,141.32226 v 6.10547 c -0.91549,-1.18237 -2.31081,-2.09942 -3.98242,-2.74804 1.63826,-0.90808 2.84454,-2.07129 3.98242,-3.35743 z m 19.39453,28.96875 -6.91797,16.05469 h -16.98437 c 5.9979,-0.93792 13.39306,-5.16492 23.90234,-16.05469 z" />
    </g>
    <g
       id="koppel-gruber-p2"
       transform="translate(4.5984043,6.4930466)">
      <path
         id="koppel-gruber-p2-bg"
         style="display:inline;fill:url(#kgpf-logo-primary-bg)"
         d="m 244.75195,107.5332 c 1.06816,0.97576 2.16797,2.2974 2.16797,9.55469 v 57.3125 c 0,5.10125 -0.68277,9.40298 -3.92383,11.80469 h 12.25 c -2.93487,-2.31839 -4.05664,-5.85357 -4.05664,-11.80469 v -54.04492 c 0,-10.882 3.06293,-11.56428 5.32422,-12.82227 z m 37.79688,3.06258 c 0,0 5.14842,4.04722 4.87109,19.81641 -0.27227,15.48135 -5.71484,19.37304 -5.71484,19.37304 0,0 9.76262,-1.57617 9.98047,-18.8496 0.21002,-16.65157 -9.13672,-20.33985 -9.13672,-20.33985 z" />
      <path
         id="koppel-gruber-p2-fg"
         style="display:inline;fill:url(#kgpf-logo-primary-fg)"
         d="m 236.9707,106.19338 c 6.17283,0.32954 8.57032,1.8602 8.57032,10.20898 v 60.02149 c 0,5.02855 -2.22786,10.43955 -9.58204,11.13867 h 29.59766 c -8.34194,0 -10.00195,-3.31826 -10.00195,-14.77344 v -21.23047 c 6.25602,2.1773 20.94024,2.83138 25.79101,1.45703 9.36712,-2.65397 14.53321,-7.64433 14.53321,-23.89453 0,-17.9893 -10.50883,-22.92773 -21.99414,-22.92773 z m 31.48633,0.9531 c 10.55434,0 17.53516,2.98921 17.53516,22.47071 0,13.11197 -3.4102,20.04304 -10.38672,22.66406 -4.50286,1.69169 -13.9314,0.5601 -20.05078,-4.0957 v -33.01172 c 0,-5.33357 4.00412,-7.99603 12.90234,-8.02735 z m -23.70508,0.38672 h 11.76172 c -2.26129,1.25799 -5.32422,1.94026 -5.32422,12.82227 v 54.04492 c 0,5.95113 1.12176,9.4863 4.05664,11.80469 h -12.25 c 3.24106,-2.40171 3.92383,-6.70343 3.92383,-11.80469 v -57.3125 c 0,-7.2573 -1.09981,-8.57893 -2.16797,-9.55469 z m 37.79688,3.06254 c 0,0 9.34674,3.68827 9.13672,20.33985 -0.21785,17.27345 -9.98047,18.8496 -9.98047,18.8496 0,0 5.44257,-3.89167 5.71484,-19.37304 0.27733,-15.7692 -4.87109,-19.81641 -4.87109,-19.81641 z" />
    </g>
    <g
       id="koppel-gruber-p1"
       style="display:inline"
       transform="translate(4.5984043,6.4930466)">
      <path
         id="koppel-gruber-p1-bg"
         style="display:inline;fill:url(#kgpf-logo-primary-bg)"
         d="m 176.79688,107.5332 c 1.06814,0.97576 2.16601,2.2974 2.16601,9.55469 v 57.3125 c 0,5.10125 -0.68277,9.40298 -3.92383,11.80469 h 12.25196 c -2.93489,-2.31839 -4.05664,-5.85357 -4.05664,-11.80469 v -54.04492 c -10e-6,-10.882 3.06097,-11.56428 5.32226,-12.82227 z m 37.79492,3.06258 c 0,0 5.14842,4.04722 4.87109,19.81641 -0.27227,15.48135 -5.71484,19.37304 -5.71484,19.37304 0,0 9.76262,-1.57617 9.98047,-18.8496 0.21002,-16.65157 -9.13672,-20.33985 -9.13672,-20.33985 z" />
      <path
         id="koppel-gruber-p1-fg"
         style="display:inline;fill:url(#kgpf-logo-primary-fg)"
         d="m 169.01562,106.19338 c 6.17283,0.32954 8.56836,1.8602 8.56836,10.20898 v 60.02149 c 0,5.02855 -2.22785,10.43955 -9.58203,11.13867 h 29.59766 c -8.34194,0 -10.00195,-3.31826 -10.00195,-14.77344 v -21.23047 c 6.25602,2.1773 20.94219,2.83138 25.79296,1.45703 9.36713,-2.65397 14.53126,-7.64433 14.53126,-23.89453 0,-17.9893 -10.50883,-22.92773 -21.99415,-22.92773 z m 31.48438,0.9531 c 10.55434,0 17.53516,2.98921 17.53516,22.47071 0,13.11197 -3.4102,20.04304 -10.38672,22.66406 -4.50286,1.69169 -13.9314,0.5601 -20.05078,-4.0957 v -33.01172 c 0,-5.33357 4.00412,-7.99603 12.90234,-8.02735 z m -23.70312,0.38672 h 11.75976 c -2.26129,1.25799 -5.32227,1.94026 -5.32226,12.82227 v 54.04492 c 0,5.95113 1.12175,9.4863 4.05664,11.80469 h -12.25196 c 3.24106,-2.40171 3.92383,-6.70343 3.92383,-11.80469 v -57.3125 c 0,-7.2573 -1.09786,-8.57893 -2.16601,-9.55469 z m 37.79492,3.06254 c 0,0 9.34674,3.68827 9.13672,20.33985 -0.21785,17.27345 -9.98047,18.8496 -9.98047,18.8496 0,0 5.44257,-3.89167 5.71484,-19.37304 0.27733,-15.7692 -4.87109,-19.81641 -4.87109,-19.81641 z" />
    </g>
    <g
       id="koppel-gruber-o"
       style="display:inline"
       transform="translate(4.5984043,6.4930466)">
      <path
         id="koppel-gruber-o-bg"
         style="display:inline;fill:url(#kgpf-logo-primary-bg)"
         d="m 106.69531,114.20117 c -8.53835,8.18406 -13.618632,18.24523 -13.708982,30.76562 -0.162097,22.46391 9.370342,31.48858 15.199222,35.3711 -14.857314,-14.45768 -14.190455,-50.24508 -1.49024,-66.13672 z m 36.23242,0 c 12.70024,15.89164 13.3671,51.67904 -1.49023,66.13672 5.82886,-3.88252 15.35937,-12.90719 15.19727,-35.3711 -0.0904,-12.52039 -5.16866,-22.58156 -13.70704,-30.76562 z" />
      <path
         id="koppel-gruber-o-fg"
         style="display:inline;fill:url(#kgpf-logo-primary-fg)"
         d="m 124.82422,106.19138 c -14.90431,0 -33.132761,13.34955 -33.128908,40.54102 0.0039,27.19148 18.224598,40.96115 33.128908,40.7793 14.90427,-0.18185 33.13281,-13.16815 33.13281,-40.57032 0,-27.40217 -18.22854,-40.75 -33.13281,-40.75 z m 0,1.90045 c 21.82887,0 21.82812,28.60712 21.82812,38.84961 0,10.24249 7.5e-4,38.90821 -21.82812,38.90821 -21.82886,0 -21.82813,-28.66098 -21.82813,-38.90821 0,-10.24723 -7.3e-4,-38.8496 21.82813,-38.84961 z m -18.12891,6.10934 c -12.70023,15.89166 -13.367086,51.67903 1.49024,66.13672 -5.82888,-3.88252 -15.361319,-12.90717 -15.199222,-35.3711 0.09035,-12.52041 5.170621,-22.58155 13.708982,-30.76562 z m 36.23242,0 c 8.53838,8.18407 13.61668,18.24521 13.70704,30.76562 0.1621,22.46393 -9.3684,31.48858 -15.19727,35.3711 14.85734,-14.45769 14.19048,-50.24506 1.49023,-66.13672 z" />
    </g>
    <g
       id="koppel-gruber-k"
       style="display:inline"
       transform="translate(4.5984043,6.4930466)">
      <path
         id="koppel-gruber-bg"
         style="display:inline;fill:url(#kgpf-logo-primary-bg)"
         d="m 57.412109,79.017575 c 2.869781,1.674228 4.681696,4.587594 4.134766,9.527344 l 8.693359,-9.527344 z M 9.4511719,79.167966 c 1.8223951,1.343634 3.8007811,4.030257 3.8007811,8.339844 v 92.82031 c -0.02011,1.98026 -1.869201,4.64277 -3.798828,5.69727 h 15.367187 c -1.864083,-1.96381 -2.998046,-4.83115 -2.998046,-9.39063 V 91.146481 c 0,-4.424628 1.728157,-9.591582 4.679687,-11.978515 z m 24.9707031,43.093754 -5.144531,5.08007 25.71875,39.75782 c 2.981179,5.16353 2.412724,14.0969 -3.160156,18.92578 h 25.83789 C 71.516184,178.19356 64.158203,167.1914 64.158203,167.1914 Z" />
      <path
         id="koppel-gruber-k-fg"
         style="display:inline;fill:url(#kgpf-logo-primary-fg)"
         d="m 0,77.5957 c 0,0 12.091254,0.367425 12.044922,10.574219 V 178.53711 C 12.044922,187.56203 0,187.5625 0,187.5625 h 39.59375 c 0,0 -12.097656,-4.7e-4 -12.097656,-9.02539 v -51.32617 l 25.164062,38.79882 c 5.339341,8.20751 1.487561,21.55274 -9.162109,21.55274 h 52.722656 c -8.865916,-0.29846 -11.735774,-2.95325 -15.798828,-9.02539 L 38.746094,116.25586 65.005859,90.687497 C 74.039602,81.891163 78.449852,77.5957 90.117188,77.5957 H 46.511719 c 16.472533,0 15.993474,12.83383 9.261719,19.388672 L 27.496094,124.51758 V 93.6582 c 0,-16.061966 12.078125,-16.0625 12.078125,-16.0625 z m 57.412109,1.421875 h 12.828125 l -8.693359,9.527344 c 0.546931,-4.939755 -1.264983,-7.853115 -4.134766,-9.527344 z M 9.4511719,79.167966 H 26.501953 c -2.951533,2.386936 -4.679687,7.553882 -4.679687,11.978515 v 85.488279 c 0,4.55948 1.133961,7.42682 2.998046,9.39063 H 9.453125 c 1.929629,-1.0545 3.778718,-3.71701 3.798828,-5.69727 V 87.50781 c 0,-4.309591 -1.978384,-6.996209 -3.8007811,-8.339844 z M 34.421875,122.26172 64.158203,167.1914 c 0,0 7.357975,11.00215 13.515625,18.83399 h -25.83789 c 5.572886,-4.82888 6.141338,-13.76224 3.160156,-18.92578 l -25.71875,-39.75782 z" />
    </g>
  </g>
  <!-- (Koppe Gruber) -->
</svg>
