<?xml version="1.0" encoding="UTF-8" standalone="no"?>
<!-- Created with Inkscape (http://www.inkscape.org/) -->

<svg
   version="1.1"
   id="kgpf-logo"
   width="288.9444"
   height="187.56358"
   viewBox="0 0 288.9444 187.56359"
   xmlns="http://www.w3.org/2000/svg"
   xmlns:svg="http://www.w3.org/2000/svg">
  <defs
     id="defs" />
  <g
     id="g18"
     transform="translate(-312.62591,0.5761689)">
    <path
       id="secondary-bg"
       style="fill:var(--secondary-bg,none);fill-opacity:1"
       d="m 447.71289,6.8085938 c 14.52556,16.3852062 15.17636,43.3476762 3.7207,63.1894532 9.6521,-9.954158 13.22657,-20.459966 12.72657,-32.880859 -0.62423,-15.506974 -6.64708,-24.949225 -16.44727,-30.3085942 z m -34.29297,2.4980468 c -21.36044,20.4992174 -13.80469,50.2839274 0.15039,67.7070314 10.34929,12.921213 21.11942,25.120758 33.56641,44.009768 12.44698,18.88902 24.75474,54.10495 56.10351,60.95117 C 462.7646,154.48703 470.99289,119.73509 446.80273,96.28125 421.36177,71.614657 392.08387,46.541442 413.41992,9.3066406 Z m 72.03125,73.9824214 c 6.36704,3.948188 14.01287,15.290434 13.5,29.244138 2.91471,-11.0041 8.51117,-23.114944 16.17578,-29.244138 z m -85.75781,8.75 c -18.98362,9.740208 -29.24629,31.948778 -23.24609,54.341798 6.00019,22.39301 28.02892,37.20525 50.02734,37.0957 -41.71015,-14.15665 -46.44568,-64.37005 -26.78125,-91.437498 z" />
    <path
       id="secondary"
       style="fill:var(--secondary,#a98b7c);fill-opacity:1"
       d="m 436.86018,-0.576165 c -26.05931,-0.00984 -39.18945,18.584432 -39.18945,42.796875 0,12.944711 1.46279,20.563203 16.46484,39.851562 -67.05386,18.592448 -47.76724,104.912108 10.25,104.912108 20.12252,0 32.83253,-6.82138 46.92969,-20.23047 9.27349,11.84235 20.69454,20.12224 32.75392,20.23242 10.86125,0.0992 22.25617,-6.56509 32.791,-20.85546 -16.12577,16.18607 -36.24964,23.91933 -53.18359,-15.72461 18.11771,-24.47094 25.94518,-63.127976 55.49414,-67.117191 v -2.960937 h -75.26367 v 2.960937 c 20.39064,0 23.86254,3.845357 28.89453,13.304688 7.1044,13.355143 2.00629,32.296713 -10.84961,49.298833 -5.64703,-18.48568 -17.98876,-45.95184 -37.97852,-67.298833 40.93487,-16.902361 32.3301,-79.15502853 -7.11328,-79.169922 z m -4.08008,3.5410156 c 25.16577,-0.079996 33.91566,54.6301774 8.82618,72.8867184 -7.86809,-11.013032 -17.1069,-15.8294 -24.67774,-26.416015 -12.8022,-17.901841 -8.29514,-41.7273969 12.02149,-46.0507815 1.31499,-0.2798316 2.59241,-0.4159877 3.83007,-0.4199219 z m 14.9336,3.84375 c 9.80021,5.3593794 15.82303,14.8015884 16.44726,30.3085934 0.5,12.420918 -3.07444,22.926682 -12.72656,32.88086 11.45568,-19.841817 10.80488,-46.804215 -3.7207,-63.1894534 z m -34.29297,2.4980469 c -21.33609,37.2348755 7.94179,62.3079665 33.38281,86.9746095 24.1902,23.453883 15.96179,58.205723 56.4375,85.693363 C 471.89219,175.12838 459.58453,139.9125 447.13753,121.02344 434.69052,102.13439 423.92043,89.934918 413.57112,77.013679 399.616,59.590541 392.06025,29.805905 413.42073,9.3066475 Z m 72.03125,73.9824215 h 29.67578 c -7.66463,6.129206 -13.26107,18.240021 -16.17578,29.244141 0.51287,-13.953738 -7.13296,-25.295947 -13.5,-29.244141 z m -69.35742,1.302735 c 26.41993,33.968486 36.64401,51.148286 53.125,79.318356 -55.63743,60.71258 -104.89249,-51.32721 -53.125,-79.318356 z m -16.40039,7.447265 c -19.66447,27.067501 -14.92898,77.280811 26.78125,91.437501 -21.99846,0.10955 -44.02714,-14.70265 -50.02735,-37.0957 -6.0002,-22.39306 4.26244,-44.60157 23.2461,-54.341801 z" />
  </g>
  <g
     id="g16"
     style="display:inline"
     transform="translate(-312.62591,0.5761689)">
    <path
       id="primary-g-bg"
       style="fill:var(--primary-bg,none);fill-opacity:1"
       d="m 554.68164,74.599609 c 10.96652,3.781245 18.27825,10.309746 25.21289,19.445313 l -5.50195,-18.164063 c -4.42033,1.415527 -13.03439,-0.465781 -19.71094,-1.28125 z m -36.70312,9.369141 c -12.32361,11.563134 -19.8086,25.16912 -19.8086,48.91797 3.64073,43.12781 25.96477,48.67928 36.62305,51.53516 -15.90669,-7.80091 -28.67516,-23.58178 -29.21094,-48.55469 -0.60522,-28.20978 5.16121,-41.399191 12.39649,-51.89844 z M 570.25,133.75 c 1.24564,0.98191 3.625,2.83377 3.625,5 v 27.9375 c 0,3.27326 -4.22152,10.70599 -13.25,16.1875 10.16664,-2.89583 14.39586,-8.29167 24.6875,-10.375 -4.31834,-2.69354 -3.875,-9.77736 -3.875,-18.875 0,-12.97264 2.68392,-17.48262 5.76953,-19.875 z" />
    <path
       id="primary-g"
       style="fill:var(--primary,#39486f);fill-opacity:1"
       d="m 542.98242,72.212891 c -12.79166,0 -46.21289,12.43554 -46.21289,60.015629 0,29.80857 15.49613,54.75781 50.59766,54.75781 18.1491,0 26.63448,-12.21041 42.93359,-13.85547 -2.47322,-1.95419 -3.09375,-4.61405 -3.09375,-8.41992 v -21.03516 c 0,-7.24323 4.62373,-11.44726 14.36328,-11.44726 h -47.90625 c 8.61223,0 18.82813,1.36749 18.82813,8 v 24.43945 c 0,9.95582 -13.82397,20.61523 -25.125,20.61523 -28.53253,0 -35.18946,-32.05975 -35.18946,-55.61718 0,-42.312533 10.2068,-55.332036 30.80469,-55.332036 20.83216,0 35.46224,16.502278 43.8711,35.222656 -4.03377,-11.014575 -5.96485,-25.540324 -5.96485,-36.636718 -14.91304,4.964829 -18.9541,-0.707031 -37.90625,-0.707031 z m 11.69922,2.386718 c 6.67656,0.815469 15.29061,2.696778 19.71094,1.28125 l 5.50195,18.164063 C 572.95988,84.909346 565.64817,78.380857 554.68164,74.599609 Z m -36.70312,9.369141 c -7.23528,10.499259 -13.00171,23.68863 -12.39649,51.89844 0.53578,24.97294 13.30424,40.75378 29.21094,48.55469 -10.65829,-2.85588 -32.98232,-8.40731 -36.62305,-51.53516 0,-23.74887 7.48498,-37.354824 19.8086,-48.91797 z M 570.25,133.75 h 16.95703 c -3.08561,2.39238 -5.76953,6.90235 -5.76953,19.875 0,9.09765 -0.44334,16.18146 3.875,18.875 -10.29165,2.08333 -14.52085,7.47917 -24.6875,10.375 9.02849,-5.48152 13.25,-12.91424 13.25,-16.1875 V 138.75 c 0,-2.16623 -2.37936,-4.01809 -3.625,-5 z" />
  </g>
  <g
     id="g17"
     style="display:inline"
     transform="translate(0,0.5761689)">
    <path
       id="primary-k-bg"
       style="fill:var(--primary-bg,none);fill-opacity:1"
       d="m 57.412109,78.441406 c 2.869781,1.674228 4.681696,4.587594 4.134766,9.527344 l 8.693359,-9.527344 z M 9.4511719,78.591797 c 1.8223951,1.343634 3.8007811,4.030257 3.8007811,8.339844 v 92.820309 c -0.02011,1.98026 -1.869201,4.64277 -3.798828,5.69727 h 15.367187 c -1.864083,-1.96381 -2.998046,-4.83115 -2.998046,-9.39063 V 90.570312 c 0,-4.424628 1.728157,-9.591582 4.679687,-11.978515 z m 24.9707031,43.093753 -5.144531,5.08007 25.71875,39.75782 c 2.981179,5.16353 2.412724,14.0969 -3.160156,18.92578 h 25.83789 C 71.516184,177.61739 64.158203,166.61523 64.158203,166.61523 Z" />
    <path
       id="primary-k"
       style="fill:var(--primary#39486f);fill-opacity:1"
       d="m 0,77.019531 c 0,0 12.091254,0.367425 12.044922,10.574219 v 90.36719 C 12.044922,186.98586 0,186.98633 0,186.98633 h 39.59375 c 0,0 -12.097656,-4.7e-4 -12.097656,-9.02539 v -51.32617 l 25.164062,38.79882 c 5.339341,8.20751 1.487561,21.55274 -9.162109,21.55274 h 52.722656 c -8.865916,-0.29846 -11.735774,-2.95325 -15.798828,-9.02539 L 38.746094,115.67969 65.005859,90.111328 C 74.039602,81.314994 78.449852,77.019531 90.117188,77.019531 H 46.511719 c 16.472533,0 15.993474,12.83383 9.261719,19.388672 L 27.496094,123.94141 V 93.082031 c 0,-16.061966 12.078125,-16.0625 12.078125,-16.0625 z m 57.412109,1.421875 h 12.828125 l -8.693359,9.527344 c 0.546931,-4.939755 -1.264983,-7.853115 -4.134766,-9.527344 z M 9.4511719,78.591797 H 26.501953 c -2.951533,2.386936 -4.679687,7.553882 -4.679687,11.978515 v 85.488278 c 0,4.55948 1.133961,7.42682 2.998046,9.39063 H 9.453125 c 1.929629,-1.0545 3.778718,-3.71701 3.798828,-5.69727 V 86.931641 c 0,-4.309591 -1.978384,-6.996209 -3.8007811,-8.339844 z m 24.9707031,43.093753 29.736328,44.92968 c 0,0 7.357975,11.00215 13.515625,18.83399 h -25.83789 c 5.572886,-4.82888 6.141338,-13.76224 3.160156,-18.92578 l -25.71875,-39.75782 z" />
  </g>
</svg>
